<svg width="71" height="66" viewBox="0 0 71 66" fill="none" xmlns="http://www.w3.org/2000/svg">
<g filter="url(#filter0_d_2745_547)">
<path d="M43.2095 1.03659C48.8277 2.10833 52.9495 6.81488 57.5 5.75378C61.3188 4.86331 71 2.53976 71 2.53976V53.3465C71 53.3465 61.3188 51.023 57.5 50.1325C52.9487 49.0712 48.8262 53.7782 43.2065 54.8503C41.3655 55.2388 39.4566 55.4431 37.5 55.4431C22.3122 55.4431 10 43.131 10 27.9431C10 12.7553 22.3122 0.443115 37.5 0.443115C39.4577 0.443115 41.3676 0.647675 43.2095 1.03659Z" fill="white"/>
</g>
<path d="M46.6667 27.9999C46.3462 28.0022 46.0287 28.0623 45.7294 28.1773L42.5321 25.5599C42.6107 25.2746 42.6667 24.9786 42.6667 24.6666C42.6667 22.8186 41.1814 21.3333 39.3334 21.3333C37.4854 21.3333 36.0001 22.8186 36.0001 24.6666C36.0001 25.1946 36.1334 25.6866 36.3494 26.1293L32.4707 30.7133C32.3155 30.6842 32.158 30.6686 32.0001 30.6666C31.7614 30.6666 31.5361 30.7066 31.3174 30.7653L27.9001 27.3479C27.9601 27.1306 28.0001 26.9053 28.0001 26.6666C28.0001 25.1893 26.8107 23.9999 25.3334 23.9999C23.8561 23.9999 22.6667 25.1893 22.6667 26.6666C22.6667 28.1439 23.8561 29.3333 25.3334 29.3333C25.5721 29.3333 25.7974 29.2933 26.0161 29.2346L29.4334 32.6519C29.3693 32.8734 29.3357 33.1027 29.3334 33.3333C29.3334 34.8106 30.5227 35.9999 32.0001 35.9999C33.4774 35.9999 34.6667 34.8106 34.6667 33.3333C34.6667 33.0173 34.6027 32.7199 34.5027 32.4386L38.3867 27.8493C38.6894 27.9373 39.0027 27.9999 39.3334 27.9999C39.8596 27.997 40.3775 27.8686 40.8441 27.6253L44.0427 30.2426C44.0177 30.3826 44.0034 30.5244 44.0001 30.6666C44.0001 32.1439 45.1894 33.3333 46.6667 33.3333C48.1441 33.3333 49.3334 32.1439 49.3334 30.6666C49.3334 29.1893 48.1441 27.9999 46.6667 27.9999Z" fill="#0B77BE"/>
<circle cx="37" cy="28" r="23.5" stroke="#0B77BE"/>
<defs>
<filter id="filter0_d_2745_547" x="0" y="0.443115" width="71" height="65" filterUnits="userSpaceOnUse" color-interpolation-filters="sRGB">
<feFlood flood-opacity="0" result="BackgroundImageFix"/>
<feColorMatrix in="SourceAlpha" type="matrix" values="0 0 0 0 0 0 0 0 0 0 0 0 0 0 0 0 0 0 127 0" result="hardAlpha"/>
<feOffset dx="-5" dy="5"/>
<feGaussianBlur stdDeviation="2.5"/>
<feComposite in2="hardAlpha" operator="out"/>
<feColorMatrix type="matrix" values="0 0 0 0 0 0 0 0 0 0 0 0 0 0 0 0 0 0 0.25 0"/>
<feBlend mode="normal" in2="BackgroundImageFix" result="effect1_dropShadow_2745_547"/>
<feBlend mode="normal" in="SourceGraphic" in2="effect1_dropShadow_2745_547" result="shape"/>
</filter>
</defs>
</svg>
