<svg width="23" height="18" viewBox="0 0 23 18" fill="none" xmlns="http://www.w3.org/2000/svg">
<path d="M0 3.48958C0 2.79063 0.277659 2.1203 0.771896 1.62606C1.26613 1.13183 1.93646 0.854168 2.63542 0.854168H20.3646C21.0635 0.854168 21.7339 1.13183 22.2281 1.62606C22.7223 2.1203 23 2.79063 23 3.48958V5.64583H0V3.48958Z" fill="#0B77BE"/>
<path d="M0 7.08333H23V14.5104C23 15.2094 22.7223 15.8797 22.2281 16.3739C21.7339 16.8682 21.0635 17.1458 20.3646 17.1458H2.63542C1.93646 17.1458 1.26613 16.8682 0.771896 16.3739C0.277659 15.8797 0 15.2094 0 14.5104V7.08333ZM15.8125 11.7792C15.5838 11.7792 15.3644 11.87 15.2026 12.0318C15.0409 12.1935 14.95 12.4129 14.95 12.6417C14.95 12.8704 15.0409 13.0898 15.2026 13.2515C15.3644 13.4133 15.5838 13.5042 15.8125 13.5042H18.6875C18.9162 13.5042 19.1356 13.4133 19.2974 13.2515C19.4591 13.0898 19.55 12.8704 19.55 12.6417C19.55 12.4129 19.4591 12.1935 19.2974 12.0318C19.1356 11.87 18.9162 11.7792 18.6875 11.7792H15.8125Z" fill="#0B77BE"/>
</svg>
