<svg width="66" height="68" viewBox="0 0 66 68" fill="none" xmlns="http://www.w3.org/2000/svg">
<path d="M32.8905 66C50.0212 66 63.7809 51.6014 63.7809 34C63.7809 16.3986 50.0212 2 32.8905 2C15.7598 2 2 16.3986 2 34C2 51.6014 15.7598 66 32.8905 66Z" fill="#75A70A" stroke="#F1F1F1" stroke-width="4"/>
<path d="M33.3721 38.875C35.699 38.875 37.5853 36.9162 37.5853 34.5C37.5853 32.0838 35.699 30.125 33.3721 30.125C31.0452 30.125 29.1589 32.0838 29.1589 34.5C29.1589 36.9162 31.0452 38.875 33.3721 38.875Z" fill="white"/>
<path d="M34.7765 22.934V19.9167H31.9677V22.934C29.4962 23.2611 27.1993 24.4313 25.4375 26.2607C23.6758 28.0901 22.5489 30.4752 22.2338 33.0417H19.3281V35.9583H22.2338C22.5487 38.5249 23.6755 40.9101 25.4373 42.7396C27.1991 44.569 29.4961 45.7391 31.9677 46.066V49.0833H34.7765V46.066C37.2481 45.7391 39.5451 44.569 41.3069 42.7396C43.0687 40.9101 44.1955 38.5249 44.5104 35.9583H47.4161V33.0417H44.5104C44.1953 30.4752 43.0684 28.0901 41.3067 26.2607C39.5449 24.4313 37.248 23.2611 34.7765 22.934ZM33.3721 43.25C28.725 43.25 24.9457 39.3256 24.9457 34.5C24.9457 29.6744 28.725 25.75 33.3721 25.75C38.0193 25.75 41.7985 29.6744 41.7985 34.5C41.7985 39.3256 38.0193 43.25 33.3721 43.25Z" fill="white"/>
</svg>
