<svg width="68" height="68" viewBox="0 0 68 68" fill="none" xmlns="http://www.w3.org/2000/svg">
<circle cx="34" cy="34" r="32" fill="#C23131" stroke="#F1F1F1" stroke-width="4"/>
<path d="M24.1568 20L22.6482 21.5064L24.8929 23.75L26.3993 22.2436L24.1557 20H24.1568ZM43.8443 20L41.5996 22.2436L43.1071 23.75L45.3507 21.5075L43.8432 20H43.8443ZM34 20.6686C33.6464 20.6729 33.2886 20.6932 32.9286 20.7371C32.9179 20.7371 32.9071 20.735 32.8964 20.7371C28.5507 21.2354 25.0921 24.7464 24.4911 29.0729C24.0111 32.555 25.4468 35.7125 27.8393 37.7461C28.8179 38.5813 29.4799 39.7274 29.7143 40.9925V47.4211H32.1571C32.53 48.0607 33.2104 48.4925 34 48.4925C34.7896 48.4925 35.47 48.0607 35.8429 47.4211H38.2857V43.1354H38.3864V41.8625C38.3864 40.2918 39.2029 38.7082 40.5293 37.4771C42.3036 35.7007 43.6429 33.1775 43.6429 30.2793C43.6429 24.9864 39.2864 20.6193 34 20.6686V20.6686ZM34 22.8114C38.1411 22.7536 41.5 26.1436 41.5 30.2793C41.5 32.5229 40.4607 34.4986 39.0218 35.9364L39.0561 35.9707C37.6261 37.2893 36.7015 39.0659 36.4418 40.9936H31.7554C31.5196 39.1571 30.7321 37.3796 29.2439 36.1046C27.3507 34.4975 26.2225 32.0761 26.5996 29.3418C27.0679 25.9668 29.8064 23.2529 33.1621 22.8811C33.4392 22.8424 33.7182 22.8196 33.9979 22.8125L34 22.8114ZM19 30.2793V32.4221H22.2143V30.2793H19ZM45.7857 30.2793V32.4221H49V30.2793H45.7857ZM24.8929 38.9514L22.6493 41.1939L24.1568 42.7014L26.3982 40.4579L24.8929 38.9514ZM43.1071 38.9514L41.6007 40.4579L43.8432 42.7014L45.3507 41.1939L43.1071 38.9514ZM31.8571 43.1364H36.1429V45.2793H31.8571V43.1364Z" fill="white"/>
</svg>
