<svg width="11" height="11" viewBox="0 0 11 11" fill="none" xmlns="http://www.w3.org/2000/svg">
<path d="M8.73153 0.5H2.06486C1.12042 0.5 0.398193 1.22222 0.398193 2.16667V8.83333C0.398193 9.77778 1.12042 10.5 2.06486 10.5H8.73153C9.67597 10.5 10.3982 9.77778 10.3982 8.83333V2.16667C10.3982 1.22222 9.67597 0.5 8.73153 0.5ZM5.39819 3.83333C6.34264 3.83333 7.06486 4.55556 7.06486 5.5C7.06486 6.44444 6.34264 7.16667 5.39819 7.16667C4.45375 7.16667 3.73153 6.44444 3.73153 5.5C3.73153 4.55556 4.45375 3.83333 5.39819 3.83333ZM7.50931 2.72222C7.50931 2.33333 7.84264 2.05556 8.17597 2.05556C8.50931 2.05556 8.84264 2.38889 8.84264 2.72222C8.84264 3.05556 8.56486 3.38889 8.17597 3.38889C7.78708 3.38889 7.50931 3.11111 7.50931 2.72222ZM8.73153 9.38889H2.06486C1.73153 9.38889 1.5093 9.16667 1.5093 8.83333V5.5H2.62042C2.62042 7.05556 3.84264 8.27778 5.39819 8.27778C6.95375 8.27778 8.17597 7.05556 8.17597 5.5H9.28708V8.83333C9.28708 9.16667 9.06486 9.38889 8.73153 9.38889Z" fill="white"/>
</svg>
