<svg width="21" height="19" viewBox="0 0 21 19" fill="none" xmlns="http://www.w3.org/2000/svg">
<path d="M3.92038 0.464279C4.3561 0.464279 4.77396 0.637365 5.08206 0.945461C5.39015 1.25356 5.56324 1.67142 5.56324 2.10714V16.8929C5.56324 17.3286 5.39015 17.7464 5.08206 18.0545C4.77396 18.3626 4.3561 18.5357 3.92038 18.5357H2.28574C1.85003 18.5357 1.43216 18.3626 1.12406 18.0545C0.815969 17.7464 0.642883 17.3286 0.642883 16.8929V2.10714C0.642883 1.67142 0.815969 1.25356 1.12406 0.945461C1.43216 0.637365 1.85003 0.464279 2.28574 0.464279H3.92038ZM9.67038 0.464279C10.1061 0.464279 10.524 0.637365 10.8321 0.945461C11.1402 1.25356 11.3132 1.67142 11.3132 2.10714V16.8929C11.3132 17.3286 11.1402 17.7464 10.8321 18.0545C10.524 18.3626 10.1061 18.5357 9.67038 18.5357H8.03163C7.59592 18.5357 7.17805 18.3626 6.86996 18.0545C6.56186 17.7464 6.38878 17.3286 6.38878 16.8929V2.10714C6.38878 1.67142 6.56186 1.25356 6.86996 0.945461C7.17805 0.637365 7.59592 0.464279 8.03163 0.464279H9.67038ZM17.129 3.3746L20.2997 16.0928C20.4048 16.5156 20.3377 16.9629 20.1133 17.3364C19.889 17.7098 19.5255 17.979 19.1028 18.0847L17.4904 18.4872C17.281 18.5394 17.0634 18.5497 16.85 18.5178C16.6366 18.4858 16.4316 18.4121 16.2467 18.3009C16.0618 18.1896 15.9007 18.0431 15.7724 17.8696C15.6441 17.6961 15.5513 17.499 15.4992 17.2896L12.3285 4.57142C12.2763 4.3621 12.2657 4.14453 12.2975 3.93113C12.3294 3.71774 12.4029 3.5127 12.514 3.32773C12.625 3.14276 12.7714 2.98147 12.9448 2.85308C13.1182 2.72469 13.3152 2.63171 13.5245 2.57946L15.137 2.17778C15.3464 2.12552 15.564 2.11503 15.7774 2.1469C15.9909 2.17876 16.1959 2.25237 16.3809 2.36351C16.5659 2.47466 16.7272 2.62115 16.8555 2.79464C16.9839 2.96813 17.0768 3.1652 17.129 3.3746Z" fill="#0B77BE"/>
</svg>
