<svg width="30" height="29" viewBox="0 0 30 29" fill="none" xmlns="http://www.w3.org/2000/svg">
<path d="M5.15679 0L3.64821 1.50643L5.89286 3.75L7.39929 2.24357L5.15571 0H5.15679ZM24.8443 0L22.5996 2.24357L24.1071 3.75L26.3507 1.5075L24.8432 0H24.8443ZM15 0.668572C14.6464 0.672857 14.2886 0.693215 13.9286 0.737143C13.9179 0.737143 13.9071 0.735 13.8964 0.737143C9.55071 1.23536 6.09214 4.74643 5.49107 9.07286C5.01107 12.555 6.44679 15.7125 8.83929 17.7461C9.81794 18.5813 10.4799 19.7274 10.7143 20.9925V27.4211H13.1571C13.53 28.0607 14.2104 28.4925 15 28.4925C15.7896 28.4925 16.47 28.0607 16.8429 27.4211H19.2857V23.1354H19.3864V21.8625C19.3864 20.2918 20.2029 18.7082 21.5293 17.4771C23.3036 15.7007 24.6429 13.1775 24.6429 10.2793C24.6429 4.98643 20.2864 0.619286 15 0.668572ZM15 2.81143C19.1411 2.75357 22.5 6.14357 22.5 10.2793C22.5 12.5229 21.4607 14.4986 20.0218 15.9364L20.0561 15.9707C18.6261 17.2893 17.7015 19.0659 17.4418 20.9936H12.7554C12.5196 19.1571 11.7321 17.3796 10.2439 16.1046C8.35071 14.4975 7.2225 12.0761 7.59964 9.34179C8.06786 5.96679 10.8064 3.25286 14.1621 2.88107C14.4392 2.84244 14.7182 2.81955 14.9979 2.8125L15 2.81143ZM0 10.2793V12.4221H3.21429V10.2793H0ZM26.7857 10.2793V12.4221H30V10.2793H26.7857ZM5.89286 18.9514L3.64929 21.1939L5.15679 22.7014L7.39821 20.4579L5.89286 18.9514ZM24.1071 18.9514L22.6007 20.4579L24.8432 22.7014L26.3507 21.1939L24.1071 18.9514ZM12.8571 23.1364H17.1429V25.2793H12.8571V23.1364Z" fill="white"/>
</svg>
