<svg width="10" height="13" viewBox="0 0 10 13" fill="none" xmlns="http://www.w3.org/2000/svg">
<path d="M9.41588 7.96953C9.80058 7.2471 10.0012 6.44095 10 5.62248C10 2.86101 7.76147 0.622482 5 0.622482C2.23853 0.622482 7.3346e-06 2.86101 7.3346e-06 5.62248C-0.00201667 6.80197 0.414917 7.94385 1.17648 8.84453L1.18236 8.85188C1.18442 8.85365 1.18618 8.856 1.18765 8.85777H1.17648L4.14353 12.0078C4.25352 12.1245 4.38622 12.2175 4.53348 12.2811C4.68074 12.3447 4.83945 12.3775 4.99985 12.3775C5.16026 12.3775 5.31896 12.3447 5.46622 12.2811C5.61348 12.2175 5.74619 12.1245 5.85618 12.0078L8.82353 8.85777H8.81235L8.81705 8.85218L8.81764 8.85159C8.83882 8.8263 8.86 8.801 8.88088 8.77512C9.08488 8.52439 9.26415 8.2545 9.41617 7.96924L9.41588 7.96953ZM5.00118 7.53424C4.53315 7.53424 4.08429 7.34832 3.75334 7.01737C3.4224 6.68642 3.23647 6.23756 3.23647 5.76954C3.23647 5.30151 3.4224 4.85265 3.75334 4.5217C4.08429 4.19075 4.53315 4.00483 5.00118 4.00483C5.46921 4.00483 5.91807 4.19075 6.24901 4.5217C6.57996 4.85265 6.76588 5.30151 6.76588 5.76954C6.76588 6.23756 6.57996 6.68642 6.24901 7.01737C5.91807 7.34832 5.46921 7.53424 5.00118 7.53424Z" fill="white"/>
</svg>
