<svg width="13" height="17" viewBox="0 0 13 17" fill="none" xmlns="http://www.w3.org/2000/svg">
<path d="M13 6.1625C13 2.76462 10.084 0 6.5 0C2.91603 0 0 2.76462 0 6.1625C0 9.29652 2.48046 11.8919 5.67816 12.2758V13.3875H4.33333C4.11537 13.3875 3.90633 13.4696 3.75221 13.6157C3.59808 13.7618 3.51149 13.96 3.51149 14.1667C3.51149 14.3733 3.59808 14.5715 3.75221 14.7176C3.90633 14.8637 4.11537 14.9458 4.33333 14.9458H5.67816V16.2208C5.67816 16.4275 5.76475 16.6257 5.91887 16.7718C6.073 16.9179 6.28203 17 6.5 17C6.71797 17 6.927 16.9179 7.08113 16.7718C7.23525 16.6257 7.32184 16.4275 7.32184 16.2208V14.9458H8.66667C8.88463 14.9458 9.09367 14.8637 9.24779 14.7176C9.40192 14.5715 9.48851 14.3733 9.48851 14.1667C9.48851 13.96 9.40192 13.7618 9.24779 13.6157C9.09367 13.4696 8.88463 13.3875 8.66667 13.3875H7.32184V12.2758C10.5195 11.8919 13 9.29652 13 6.1625ZM1.64368 6.1625C1.64368 3.62383 3.8223 1.55833 6.5 1.55833C9.1777 1.55833 11.3563 3.62383 11.3563 6.1625C11.3563 8.70117 9.1777 10.7667 6.5 10.7667C3.8223 10.7667 1.64368 8.70117 1.64368 6.1625Z" fill="#555555"/>
</svg>
