<svg width="23" height="21" viewBox="0 0 23 21" fill="none" xmlns="http://www.w3.org/2000/svg">
<path d="M20.4444 3.47222H11.5L9.69833 1.67056C9.21278 1.185 8.56111 0.916668 7.88389 0.916668H2.55556C1.15 0.916668 0.0127781 2.06667 0.0127781 3.47222L0 17.5278C0 18.9333 1.15 20.0833 2.55556 20.0833H20.4444C21.85 20.0833 23 18.9333 23 17.5278V6.02778C23 4.62222 21.85 3.47222 20.4444 3.47222ZM16.6111 14.9722H6.38889C6.27024 14.9722 6.15393 14.9392 6.053 14.8768C5.95208 14.8144 5.87051 14.7252 5.81745 14.6191C5.76439 14.5129 5.74193 14.3941 5.75258 14.276C5.76324 14.1578 5.80659 14.0449 5.87778 13.95L7.64111 11.6117C7.89667 11.2667 8.40778 11.2667 8.66333 11.6117L10.2222 13.6944L13.0589 9.89945C13.3144 9.55445 13.8256 9.55445 14.0811 9.89945L17.1222 13.95C17.1934 14.0449 17.2368 14.1578 17.2474 14.276C17.2581 14.3941 17.2356 14.5129 17.1826 14.6191C17.1295 14.7252 17.0479 14.8144 16.947 14.8768C16.8461 14.9392 16.7298 14.9722 16.6111 14.9722Z" fill="#0B77BE"/>
</svg>
