<svg width="26" height="20" viewBox="0 0 26 20" fill="none" xmlns="http://www.w3.org/2000/svg">
<path d="M9.16517 4.19335L9.16346 4.15711C9.53239 4.12216 9.90289 4.20523 10.2216 4.39435C10.5403 4.58346 10.7907 4.86887 10.9368 5.20944C11.0829 5.55001 11.1171 5.92816 11.0345 6.28942C10.9521 6.64989 10.7576 6.97496 10.479 7.21802C10.0906 7.56904 9.78044 7.99788 9.5687 8.47666C9.35668 8.9561 9.2481 9.47485 9.25004 9.99907L9.25004 10.0011C9.24782 10.5251 9.35617 11.0436 9.56803 11.5229C9.77989 12.0022 10.0905 12.4313 10.4795 12.7824L10.4808 12.7835C10.6508 12.9391 10.7885 13.1265 10.886 13.3353C10.9835 13.544 11.039 13.7699 11.0492 14.0001C11.0595 14.2302 11.0243 14.4602 10.9457 14.6767C10.867 14.8933 10.7465 15.0923 10.591 15.2623C10.4355 15.4322 10.248 15.5699 10.0393 15.6675C9.83053 15.765 9.60463 15.8205 9.37446 15.8307C9.1443 15.8409 8.91437 15.8057 8.6978 15.7271C8.48143 15.6486 8.28264 15.5282 8.11275 15.3729C8.1126 15.3727 8.11244 15.3726 8.11229 15.3725L8.28104 15.188L9.16517 4.19335ZM9.16517 4.19335L9.16131 4.15743C8.7788 4.19857 8.42054 4.36459 8.14192 4.62978L9.16517 4.19335ZM15.063 10.0004C15.0635 9.72932 15.0104 9.4608 14.9069 9.21025C14.8033 8.9597 14.6514 8.73205 14.4597 8.54036C14.268 8.34866 14.0403 8.19669 13.7898 8.09315C13.5392 7.98962 13.2707 7.93655 12.9996 7.937L12.75 7.93742V7.95333C12.4308 7.99248 12.1239 8.10595 11.8546 8.28606C11.5157 8.51278 11.2516 8.83489 11.0957 9.21169C10.9398 9.5885 10.8991 10.0031 10.9788 10.403C11.0585 10.8029 11.255 11.1702 11.5434 11.4585C11.8318 11.7467 12.1992 11.943 12.5992 12.0225C12.9991 12.1019 13.4137 12.061 13.7904 11.9049C14.1671 11.7488 14.4891 11.4845 14.7156 11.1455C14.9421 10.8065 15.063 10.408 15.063 10.0004ZM15.063 10.0004L14.813 10H15.063C15.063 10.0001 15.063 10.0003 15.063 10.0004ZM16.75 10.0009L16.75 9.99893C16.7523 9.4747 16.6438 8.95591 16.4318 8.47646C16.22 7.99749 15.9096 7.56858 15.5208 7.2177C15.2603 6.98854 15.0737 6.68709 14.9849 6.35165C14.8959 6.01564 14.909 5.66075 15.0226 5.33221C15.1361 5.00368 15.3449 4.7164 15.6223 4.50698C15.8994 4.29779 16.2325 4.17577 16.5792 4.15644C16.8184 4.14132 17.0582 4.1755 17.2836 4.25687C17.5087 4.3381 17.7147 4.46461 17.8889 4.62859C18.6359 5.30903 19.2319 6.13848 19.6386 7.06346C20.0456 7.989 20.2538 8.98959 20.25 10.0006C20.25 10.0007 20.25 10.0008 20.25 10.001L20 10C19.9976 10.9782 19.7906 11.9452 19.3922 12.8386C18.9939 13.7321 18.413 14.5324 17.687 15.188L16.75 10.0009ZM16.75 10.0009C16.752 10.5252 16.6434 11.0439 16.4314 11.5233C16.2208 11.9994 15.913 12.4262 15.5276 12.7761C15.337 12.9205 15.178 13.1026 15.0604 13.311C14.9408 13.523 14.8668 13.7576 14.843 13.9998C14.8192 14.242 14.8462 14.4865 14.9223 14.7177C14.9983 14.9489 15.1218 15.1617 15.2847 15.3424C15.4476 15.5232 15.6465 15.668 15.8686 15.7676C16.0906 15.8672 16.331 15.9194 16.5744 15.9208C16.8178 15.9222 17.0588 15.8728 17.282 15.7759C17.5016 15.6804 17.6993 15.541 17.8628 15.3661L16.75 10.0009ZM20.268 0.812338L20.031 0.824679V0.847272C19.777 0.901679 19.5372 1.01221 19.3298 1.17191C19.0606 1.37922 18.8575 1.66045 18.7454 1.98124C18.6334 2.30203 18.6171 2.64852 18.6986 2.9784C18.7798 3.30683 18.9544 3.60465 19.2013 3.83585C20.0106 4.6443 20.6524 5.60456 21.0897 6.66158C21.5276 7.71987 21.752 8.85427 21.75 9.99957V10.0003C21.7514 11.1455 21.5267 12.2798 21.0888 13.338C20.6513 14.3955 20.0095 15.3562 19.2002 16.1653C19.0323 16.3262 18.8981 16.5189 18.8053 16.7323C18.7122 16.9465 18.6629 17.1772 18.6602 17.4108C18.6575 17.6444 18.7015 17.8761 18.7897 18.0925C18.8778 18.3088 19.0083 18.5053 19.1735 18.6705C19.3387 18.8357 19.5352 18.9662 19.7516 19.0544C19.9679 19.1425 20.1997 19.1865 20.4333 19.1838C20.6668 19.1812 20.8975 19.1318 21.1118 19.0387C21.3252 18.946 21.518 18.8117 21.6789 18.6437C23.9662 16.3485 25.2506 13.2403 25.2506 10C25.2506 6.75986 23.9664 3.65184 21.6793 1.35674C21.5199 1.1888 21.3286 1.05417 21.1167 0.960672C20.9051 0.867295 20.677 0.81681 20.4458 0.812121C20.3866 0.809183 20.3272 0.809256 20.268 0.812338ZM0.749512 10C0.749512 13.2403 2.03388 16.3485 4.32116 18.6437C4.48211 18.8117 4.6749 18.946 4.8883 19.0387C5.10254 19.1318 5.33324 19.1812 5.56683 19.1838C5.80041 19.1865 6.03218 19.1425 6.24851 19.0544C6.46484 18.9662 6.66137 18.8357 6.82656 18.6705C6.99174 18.5053 7.12224 18.3088 7.21039 18.0925C7.29854 17.8761 7.34257 17.6444 7.33988 17.4108C7.33719 17.1772 7.28785 16.9465 7.19474 16.7323C7.10201 16.5189 6.96775 16.3261 6.79978 16.1652C5.99001 15.3565 5.34791 14.3959 4.91035 13.3384C4.47246 12.2801 4.24805 11.1457 4.25004 10.0004L4.25004 9.99971C4.24869 8.85446 4.47339 7.7202 4.91127 6.66196C5.34893 5.60424 5.99095 4.64326 6.80055 3.83404C7.06435 3.57731 7.24049 3.24391 7.30388 2.88127C7.36738 2.51802 7.3145 2.14399 7.1528 1.81257C6.9911 1.48115 6.72884 1.20928 6.40345 1.03576C6.16232 0.907174 5.89564 0.837472 5.62504 0.830506V0.807654L5.34217 0.845171C4.95474 0.896554 4.59568 1.07614 4.3222 1.35529C2.03426 3.65053 0.749512 6.75917 0.749512 10Z" fill="#0B77BE" stroke="#0B77BE" stroke-width="0.5"/>
</svg>
