<svg width="23" height="21" viewBox="0 0 23 21" fill="none" xmlns="http://www.w3.org/2000/svg">
<path d="M20.4444 3.47223H11.5L9.69833 1.67056C9.21278 1.18501 8.56111 0.916672 7.88389 0.916672H2.55556C1.15 0.916672 0.0127781 2.06667 0.0127781 3.47223L0 17.5278C0 18.9333 1.15 20.0833 2.55556 20.0833H20.4444C21.85 20.0833 23 18.9333 23 17.5278V6.02778C23 4.62223 21.85 3.47223 20.4444 3.47223Z" fill="#0B77BE"/>
<path d="M15.7816 12.5241C15.6932 12.4253 15.6444 12.2982 15.6444 12.1667C15.6444 12.0351 15.6932 11.908 15.7816 11.8092L16.4873 11.0293C16.5651 10.9441 16.6133 10.8369 16.6252 10.7231C16.6371 10.6092 16.612 10.4946 16.5535 10.3957L15.4508 8.52175C15.3928 8.42292 15.3046 8.34458 15.1987 8.2979C15.0927 8.25122 14.9745 8.23858 14.8608 8.26178L13.8243 8.46759C13.6924 8.49436 13.5551 8.47278 13.4383 8.40693C13.3215 8.34108 13.2332 8.2355 13.1902 8.11013L12.8539 7.11902C12.8169 7.01145 12.7465 6.91802 12.6525 6.85193C12.5585 6.78584 12.4457 6.75044 12.3301 6.75074H10.1248C10.0045 6.74457 9.88554 6.77723 9.78599 6.84374C9.68643 6.91024 9.61177 7.00692 9.57341 7.11902L9.26465 8.11013C9.22165 8.2355 9.13342 8.34108 9.01661 8.40693C8.8998 8.47278 8.7625 8.49436 8.6306 8.46759L7.5665 8.26178C7.45874 8.24682 7.34889 8.26353 7.25077 8.30979C7.15266 8.35605 7.07068 8.4298 7.01516 8.52175L5.91247 10.3957C5.85246 10.4935 5.82547 10.6075 5.83538 10.7213C5.84528 10.8351 5.89156 10.9429 5.9676 11.0293L6.66781 11.8092C6.7562 11.908 6.80495 12.0351 6.80495 12.1667C6.80495 12.2982 6.7562 12.4253 6.66781 12.5241L5.9676 13.304C5.89156 13.3904 5.84528 13.4982 5.83538 13.6121C5.82547 13.7259 5.85246 13.8398 5.91247 13.9377L7.01516 15.8116C7.0731 15.9104 7.16133 15.9888 7.26726 16.0354C7.37319 16.0821 7.49142 16.0948 7.6051 16.0716L8.64163 15.8657C8.77352 15.839 8.91083 15.8606 9.02764 15.9264C9.14444 15.9923 9.23267 16.0978 9.27568 16.2232L9.612 17.2143C9.65036 17.3264 9.72502 17.4231 9.82458 17.4896C9.92414 17.5561 10.0431 17.5888 10.1633 17.5826H12.3687C12.4843 17.5829 12.5971 17.5475 12.6911 17.4814C12.7851 17.4153 12.8555 17.3219 12.8925 17.2143L13.2288 16.2232C13.2718 16.0978 13.3601 15.9923 13.4769 15.9264C13.5937 15.8606 13.731 15.839 13.8629 15.8657L14.8994 16.0716C15.0131 16.0948 15.1313 16.0821 15.2373 16.0354C15.3432 15.9888 15.4314 15.9104 15.4894 15.8116L16.592 13.9377C16.6506 13.8387 16.6757 13.7241 16.6638 13.6103C16.6519 13.4964 16.6037 13.3892 16.5259 13.304L15.7816 12.5241ZM14.9601 13.2499L15.4011 13.7373L14.6954 14.9396L14.0448 14.8096C13.6477 14.7299 13.2347 14.7962 12.884 14.9958C12.5334 15.1955 12.2696 15.5147 12.1427 15.8928L11.9332 16.4994H10.5217L10.3232 15.882C10.1963 15.5039 9.93254 15.1847 9.5819 14.985C9.23126 14.7853 8.81818 14.7191 8.42109 14.7988L7.7705 14.9288L7.05375 13.7319L7.49483 13.2444C7.76607 12.9465 7.91602 12.5609 7.91602 12.1613C7.91602 11.7616 7.76607 11.376 7.49483 11.0781L7.05375 10.5906L7.75948 9.39913L8.41006 9.52911C8.80716 9.60884 9.22023 9.54258 9.57087 9.34291C9.92152 9.14323 10.1853 8.82404 10.3122 8.44592L10.5217 7.83392H11.9332L12.1427 8.45134C12.2696 8.82946 12.5334 9.14865 12.884 9.34832C13.2347 9.548 13.6477 9.61426 14.0448 9.53452L14.6954 9.40454L15.4011 10.6069L14.9601 11.0943C14.6919 11.3915 14.5438 11.7749 14.5438 12.1721C14.5438 12.5692 14.6919 12.9526 14.9601 13.2499ZM11.2274 10.0003C10.7913 10.0003 10.3649 10.1273 10.0022 10.3654C9.63952 10.6034 9.35686 10.9418 9.18993 11.3376C9.02301 11.7335 8.97934 12.1691 9.06444 12.5893C9.14953 13.0095 9.35957 13.3955 9.668 13.6985C9.97643 14.0015 10.3694 14.2078 10.7972 14.2914C11.225 14.375 11.6684 14.3321 12.0714 14.1681C12.4744 14.0042 12.8188 13.7265 13.0612 13.3702C13.3035 13.014 13.4328 12.5951 13.4328 12.1667C13.4328 11.5921 13.2005 11.0411 12.7869 10.6348C12.3733 10.2285 11.8124 10.0003 11.2274 10.0003ZM11.2274 13.2499C11.0094 13.2499 10.7962 13.1863 10.6148 13.0673C10.4335 12.9483 10.2922 12.7791 10.2087 12.5812C10.1252 12.3833 10.1034 12.1655 10.1459 11.9553C10.1885 11.7452 10.2935 11.5522 10.4477 11.4007C10.6019 11.2493 10.7984 11.1461 11.0123 11.1043C11.2262 11.0625 11.4479 11.0839 11.6494 11.1659C11.8509 11.2479 12.0231 11.3868 12.1443 11.5649C12.2655 11.743 12.3301 11.9524 12.3301 12.1667C12.3301 12.4539 12.214 12.7295 12.0072 12.9326C11.8004 13.1357 11.5199 13.2499 11.2274 13.2499Z" fill="white"/>
</svg>
