<svg width="10" height="10" viewBox="0 0 10 10" fill="none" xmlns="http://www.w3.org/2000/svg">
<path d="M9.53384 1.58015L8.24138 0.288906C8.15021 0.197334 8.04184 0.124678 7.92251 0.0751112C7.80317 0.0255446 7.67522 4.43703e-05 7.546 7.53685e-05C7.28266 7.53685e-05 7.03509 0.103229 6.84941 0.288906L5.45866 1.67966C5.36708 1.77083 5.29443 1.8792 5.24486 1.99853C5.19529 2.11787 5.16979 2.24582 5.16983 2.37504C5.16983 2.63839 5.27298 2.88595 5.45866 3.07163L6.47563 4.08861C6.23758 4.61331 5.90661 5.09064 5.4987 5.49757C5.09182 5.90647 4.61453 6.23864 4.08975 6.47813L3.07277 5.46116C2.9816 5.36959 2.87323 5.29693 2.7539 5.24736C2.63456 5.1978 2.50661 5.1723 2.37739 5.17233C2.11405 5.17233 1.86648 5.27548 1.6808 5.46116L0.288831 6.8507C0.197147 6.94204 0.124428 7.05061 0.0748593 7.17016C0.0252904 7.2897 -0.000150385 7.41787 6.68724e-07 7.54729C6.68724e-07 7.81064 0.103154 8.05821 0.288831 8.24388L1.57886 9.53391C1.87497 9.83124 2.28395 9.99992 2.70384 9.99992C2.79243 9.99992 2.87738 9.99264 2.96112 9.97808C4.59702 9.70867 6.21957 8.83853 7.52901 7.5303C8.83725 6.22328 9.70617 4.60195 9.97922 2.9612C10.0617 2.45999 9.89548 1.94422 9.53384 1.58015Z" fill="white"/>
</svg>
