<svg width="22" height="25" viewBox="0 0 22 25" fill="none" xmlns="http://www.w3.org/2000/svg">
<path d="M20.38 10.1256L20.3794 10.1242C20.1185 9.50925 19.7995 8.92062 19.4268 8.3663C19.3527 8.25613 19.2378 8.17995 19.1075 8.15454C18.9772 8.12913 18.8422 8.15659 18.7321 8.23085L16.8257 9.51753C16.597 9.67184 16.5366 9.98217 16.6905 10.211C17.2036 10.9738 17.5636 11.8289 17.7505 12.7289C17.9408 13.6674 17.9407 14.6346 17.7504 15.5732C17.6572 16.0257 17.5193 16.4678 17.3386 16.893L17.3378 16.8948C17.1623 17.3124 16.9458 17.7117 16.6916 18.0866C16.1823 18.8376 15.5347 19.4849 14.7835 19.9938C14.0218 20.5062 13.1679 20.866 12.2692 21.0532C11.3308 21.241 10.3645 21.2409 9.42606 21.053C8.07723 20.7757 6.83952 20.1083 5.86652 19.1339L5.86636 19.1337C5.22322 18.4902 4.70985 17.729 4.35424 16.8915C4.17504 16.466 4.03775 16.0239 3.94433 15.5717C3.661 14.174 3.80393 12.7235 4.35459 11.408C4.70863 10.5713 5.22144 9.81109 5.86466 9.16947L5.86474 9.16939C6.50829 8.52715 7.26888 8.0141 8.1054 7.65794C8.45752 7.5091 8.82459 7.38837 9.19697 7.29891V10.1987C9.19697 10.3909 9.30715 10.5661 9.48038 10.6494C9.65361 10.7326 9.85924 10.7092 10.0093 10.5892L15.7585 5.9898C15.8771 5.89491 15.9462 5.75126 15.9462 5.59937C15.9462 5.44747 15.8771 5.30382 15.7585 5.20893L10.0093 0.609566C9.85924 0.489498 9.65361 0.466088 9.48038 0.549348C9.30715 0.632608 9.19697 0.807797 9.19697 1V3.94007C9.05322 3.96217 8.90991 3.98722 8.76715 4.01521L8.76715 4.01519L8.76297 4.01604C7.43868 4.28741 6.18086 4.81712 5.06142 5.57489C3.07346 6.91603 1.61292 8.90589 0.929364 11.2045C0.245771 13.5032 0.381687 15.9679 1.31389 18.1775C1.83295 19.408 2.58604 20.5259 3.53132 21.4692C4.47491 22.411 5.5907 23.1626 6.81798 23.6833L6.81842 23.6835C8.74852 24.5001 10.8813 24.7104 12.9337 24.2864L12.9338 24.2864C14.5765 23.9469 16.1121 23.2136 17.4089 22.1497C18.7056 21.0857 19.7246 19.7228 20.3784 18.178L20.3784 18.178C20.6439 17.5503 20.8484 16.8963 20.9828 16.2336C21.2628 14.859 21.2628 13.4421 20.9828 12.0675L20.9825 12.0659C20.8449 11.4012 20.6431 10.7514 20.38 10.1256Z" fill="#0B77BE" stroke="#0B77BE" stroke-linejoin="round"/>
</svg>
