<svg width="54" height="35" viewBox="0 0 54 35" fill="none" xmlns="http://www.w3.org/2000/svg">
<path d="M36.3735 0.00603133C36.3165 0.0162952 36.2603 0.0302121 36.2052 0.0476954C35.9013 0.115704 35.6304 0.286825 35.4387 0.531898C35.247 0.776971 35.1463 1.08083 35.1538 1.3917V2.7357H23.0385C21.9674 2.7357 20.9402 3.1605 20.1828 3.91665C19.4255 4.6728 19 5.69836 19 6.76771V24.2398C19 26.4654 20.8092 28.2718 23.0385 28.2718H35.1538V28.7758L27.8335 32.4301C27.51 32.5861 27.2618 32.8639 27.1436 33.2026C27.0253 33.5412 27.0466 33.9128 27.2028 34.2358C27.359 34.5587 27.6373 34.8065 27.9765 34.9246C28.3156 35.0427 28.6879 35.0214 29.0113 34.8655L35.1538 31.7998V32.3038C35.1538 32.6602 35.2957 33.0021 35.5481 33.2541C35.8006 33.5062 36.143 33.6478 36.5 33.6478C36.857 33.6478 37.1994 33.5062 37.4519 33.2541C37.7043 33.0021 37.8462 32.6602 37.8462 32.3038V31.7998L43.9887 34.8655C44.3121 35.0214 44.6844 35.0427 45.0236 34.9246C45.3627 34.8065 45.641 34.5587 45.7972 34.2358C45.9534 33.9128 45.9747 33.5412 45.8564 33.2026C45.7382 32.8639 45.49 32.5861 45.1665 32.4301L37.8462 28.7758V28.2718H49.9615C52.1908 28.2718 54 26.4654 54 24.2398V6.76771C54 5.69836 53.5745 4.6728 52.8172 3.91665C52.0598 3.1605 51.0326 2.7357 49.9615 2.7357H43.9038H37.8462V1.3917C37.853 1.20058 37.8188 1.01021 37.746 0.833314C37.6733 0.656417 37.5635 0.497065 37.4241 0.365904C37.2847 0.234743 37.1189 0.134794 36.9377 0.0727348C36.7565 0.0106752 36.5641 -0.0120658 36.3735 0.00603133ZM22 9C22 7.34315 23.3431 6 25 6H48C49.6569 6 51 7.34315 51 9V22C51 23.6569 49.6569 25 48 25H25C23.3431 25 22 23.6569 22 22V9ZM47.101 8.11172C46.7994 8.14408 46.5177 8.27716 46.3013 8.48938L41.8846 12.9004L38.814 9.83204C38.667 9.6814 38.4866 9.56731 38.2873 9.49898C38.088 9.43064 37.8755 9.40995 37.6668 9.43859C37.458 9.46722 37.2589 9.54437 37.0855 9.66383C36.9121 9.78329 36.7692 9.94172 36.6683 10.1264L32.6715 17.0991L31.0306 12.9824C30.9509 12.7698 30.8186 12.5809 30.646 12.4332C30.4734 12.2854 30.2662 12.1838 30.0436 12.1376C29.8211 12.0914 29.5904 12.1023 29.3732 12.1692C29.156 12.2361 28.9592 12.3568 28.8013 12.5201L24.7629 16.5521C24.5058 16.8085 24.3613 17.1564 24.3612 17.5193C24.3611 17.8821 24.5053 18.2301 24.7622 18.4868C25.0191 18.7434 25.3676 18.8877 25.731 18.8878C26.0944 18.8879 26.4429 18.7439 26.7 18.4874L29.2658 15.9258L31.2015 20.7131C31.2929 20.9532 31.4513 21.1621 31.6579 21.3152C31.8645 21.4682 32.1107 21.5589 32.3673 21.5766C32.6239 21.5943 32.8803 21.5382 33.106 21.4149C33.3317 21.2916 33.5173 21.1064 33.6408 20.8811L38.1423 13.0267L40.9181 15.7994C41.0436 15.9291 41.194 16.0322 41.3603 16.1026C41.5266 16.173 41.7053 16.2093 41.886 16.2093C42.0666 16.2093 42.2454 16.173 42.4116 16.1026C42.5779 16.0322 42.7283 15.9291 42.8538 15.7994L48.2385 10.4234C48.4511 10.2269 48.5946 9.96704 48.6475 9.68258C48.7004 9.39812 48.66 9.10421 48.5322 8.84453C48.4044 8.58485 48.1961 8.37327 47.9382 8.24125C47.6804 8.10922 47.3867 8.06379 47.101 8.11172Z" fill="white"/>
<path d="M6 12L1 17L6 22" stroke="white" stroke-width="2" stroke-linecap="round" stroke-linejoin="round"/>
</svg>
