<svg width="66" height="68" viewBox="0 0 66 68" fill="none" xmlns="http://www.w3.org/2000/svg">
<path d="M32.8967 66C50.0305 66 63.7935 51.6018 63.7935 34C63.7935 16.3982 50.0305 2 32.8967 2C15.763 2 2 16.3982 2 34C2 51.6018 15.763 66 32.8967 66Z" fill="#BAB425" stroke="#F1F1F1" stroke-width="4"/>
<path d="M43.6566 24.5176C43.3667 23.497 42.7649 22.6019 41.9421 21.9674C41.1193 21.3329 40.1201 20.9934 39.0952 21.0001C37.9074 21.0012 36.7629 21.4635 35.8867 22.2963C35.0106 23.129 34.4662 24.2718 34.3605 25.5001H31.4347C31.3276 24.2705 30.7813 23.127 29.9033 22.2943C29.0253 21.4616 27.879 20.9999 26.6898 21.0001C25.6663 20.9949 24.6688 21.3351 23.8477 21.9695C23.0266 22.604 22.4262 23.4982 22.1372 24.5176L18.5092 37.0696C18.4694 37.2094 18.449 37.3543 18.4485 37.5001V39.0001C18.4508 40.9888 19.2128 42.8952 20.5674 44.3013C21.9221 45.7073 23.7586 46.4981 25.6741 46.5001C27.078 46.4976 28.4509 46.0707 29.625 45.2716C30.7991 44.4725 31.7236 43.3357 32.2857 42.0001H33.508C34.0701 43.3357 34.9946 44.4725 36.1687 45.2716C37.3428 46.0707 38.7157 46.4976 40.1196 46.5001C42.0354 46.4981 43.8721 45.7071 45.2268 44.3008C46.5814 42.8944 47.3433 40.9875 47.3452 38.9986V37.5001C47.3452 37.3531 47.3236 37.2091 47.2846 37.0696L43.6566 24.5176ZM25.6741 43.5001C24.5249 43.4985 23.4231 43.0239 22.6103 42.1804C21.7976 41.3369 21.3401 40.1932 21.3382 39.0001C21.3382 38.8861 21.3627 38.7796 21.3699 38.6671C21.449 37.5373 21.9362 36.4802 22.7341 35.7075C23.532 34.9348 24.5816 34.5036 25.6727 34.5001C26.8223 34.5001 27.9248 34.9742 28.7376 35.8181C29.5505 36.662 30.0072 37.8066 30.0072 39.0001V39.0136C30.0022 40.204 29.5437 41.344 28.7319 42.1846C27.92 43.0252 26.8207 43.4981 25.6741 43.5001ZM40.1196 43.5001C38.973 43.4981 37.8737 43.0252 37.0618 42.1846C36.25 41.344 35.7915 40.204 35.7865 39.0136V39.0001C35.7864 38.4091 35.8985 37.824 36.1162 37.278C36.3339 36.732 36.6531 36.2358 37.0556 35.8179C37.8683 34.9738 38.9707 34.4995 40.1203 34.4993C41.2699 34.4991 42.3725 34.9731 43.1855 35.8168C43.9985 36.6606 44.4554 37.8051 44.4556 38.9986C44.454 40.192 43.9967 41.336 43.1839 42.1799C42.3711 43.0237 41.2691 43.4985 40.1196 43.5001Z" fill="white"/>
</svg>
