<svg width="15" height="15" viewBox="0 0 15 15" fill="none" xmlns="http://www.w3.org/2000/svg">
<path d="M14.4115 12.2412C14.0352 11.3992 13.4892 10.6344 12.8038 9.98932C12.1205 9.34242 11.3111 8.82664 10.4202 8.47048C10.4122 8.46671 10.4042 8.46482 10.3963 8.46105C11.6389 7.61306 12.4468 6.23178 12.4468 4.67337C12.4468 2.09171 10.2327 0 7.5 0C4.76731 0 2.55322 2.09171 2.55322 4.67337C2.55322 6.23178 3.36106 7.61306 4.60374 8.46294C4.59576 8.46671 4.58779 8.46859 4.57981 8.47236C3.6862 8.82852 2.88434 9.3392 2.19618 9.99121C1.51143 10.6367 0.965478 11.4015 0.588477 12.2431C0.218111 13.0671 0.0183648 13.9505 4.98787e-05 14.8455C-0.000482508 14.8656 0.00325156 14.8856 0.0110322 14.9043C0.0188128 14.9231 0.0304825 14.9401 0.0453536 14.9545C0.0602247 14.9689 0.0779963 14.9804 0.0976214 14.9882C0.117246 14.996 0.138328 15 0.159623 15H1.35642C1.44419 15 1.514 14.934 1.516 14.853C1.55589 13.3982 2.17424 12.0358 3.26732 11.0031C4.39829 9.93467 5.90028 9.34673 7.5 9.34673C9.09972 9.34673 10.6017 9.93467 11.7327 11.0031C12.8258 12.0358 13.4441 13.3982 13.484 14.853C13.486 14.9359 13.5558 15 13.6436 15H14.8404C14.8617 15 14.8828 14.996 14.9024 14.9882C14.922 14.9804 14.9398 14.9689 14.9546 14.9545C14.9695 14.9401 14.9812 14.9231 14.989 14.9043C14.9967 14.8856 15.0005 14.8656 15 14.8455C14.98 13.9447 14.7825 13.0685 14.4115 12.2412V12.2412ZM7.5 7.91457C6.58445 7.91457 5.72275 7.57726 5.07448 6.96482C4.42622 6.35239 4.06917 5.53832 4.06917 4.67337C4.06917 3.80842 4.42622 2.99435 5.07448 2.38191C5.72275 1.76947 6.58445 1.43216 7.5 1.43216C8.41555 1.43216 9.27725 1.76947 9.92552 2.38191C10.5738 2.99435 10.9308 3.80842 10.9308 4.67337C10.9308 5.53832 10.5738 6.35239 9.92552 6.96482C9.27725 7.57726 8.41555 7.91457 7.5 7.91457Z" fill="white"/>
</svg>
