<svg width="147" height="52" viewBox="0 0 147 52" fill="none" xmlns="http://www.w3.org/2000/svg">
<g filter="url(#filter0_d_103_12)">
<path d="M138.015 44.4184H8.83163C6.46327 44.4184 4.52551 42.4806 4.52551 40.1123V5.66327C4.52551 3.2949 6.46327 1.35715 8.83163 1.35715H138.015C140.384 1.35715 142.321 3.2949 142.321 5.66327V40.1123C142.321 42.4806 140.384 44.4184 138.015 44.4184Z" fill="#5D5DBB"/>
<path d="M33.5918 22.6724C33.5918 19.3352 36.3908 17.7204 36.4985 17.6128C34.8837 15.352 32.5153 15.0291 31.6541 14.9214C29.6087 14.7061 27.5633 16.1056 26.5944 16.1056C25.5179 16.1056 23.9031 14.9214 22.1806 14.9214C19.9199 14.9214 17.8745 16.2133 16.6903 18.2587C14.322 22.3495 16.0444 28.3781 18.3051 31.7153C19.4893 33.3301 20.7811 35.1602 22.5036 35.0526C24.226 34.9449 24.872 33.976 26.9174 33.976C28.9628 33.976 29.501 35.0526 31.3311 35.0526C33.1612 35.0526 34.3454 33.4378 35.422 31.823C36.7138 29.9929 37.2521 28.1628 37.2521 28.0551C37.1444 27.9474 33.5918 26.6556 33.5918 22.6724Z" fill="white"/>
<path d="M30.2546 12.7684C31.1158 11.5842 31.7617 10.077 31.6541 8.46224C30.3622 8.5699 28.6398 9.32347 27.7786 10.5076C26.9174 11.4765 26.1638 13.0913 26.3791 14.5985C27.7786 14.7061 29.2857 13.8449 30.2546 12.7684Z" fill="white"/>
<path d="M58.1367 34.8372H55.7684L54.4765 30.7464H49.9551L48.7709 34.8372H46.5102L51.0316 20.95H53.8306L58.1367 34.8372ZM54.0459 29.024L52.8617 25.3638C52.7541 25.0408 52.5388 24.0719 52.1082 22.7801C52.0005 23.3184 51.7852 24.2872 51.4622 25.3638L50.278 29.024H54.0459Z" fill="white"/>
<path d="M69.6556 29.7775C69.6556 31.5 69.225 32.7918 68.2561 33.8684C67.3949 34.7296 66.426 35.1602 65.1342 35.1602C63.8424 35.1602 62.8735 34.7296 62.3352 33.7607V39.0357H60.0745V28.2704C60.0745 27.1939 60.0745 26.1173 59.9669 24.9332H61.9046L62.0123 26.548C62.7658 25.3638 63.8424 24.7178 65.3495 24.7178C66.5337 24.7178 67.5026 25.1485 68.2561 26.1173C69.225 26.9786 69.6556 28.1627 69.6556 29.7775ZM67.3949 29.7775C67.3949 28.8087 67.1796 27.9474 66.749 27.4092C66.3184 26.7633 65.6725 26.4403 64.8112 26.4403C64.273 26.4403 63.7347 26.6556 63.3041 26.9786C62.8735 27.3015 62.5505 27.8398 62.4429 28.3781C62.3352 28.701 62.3352 28.9163 62.3352 29.024V30.7464C62.3352 31.5 62.5505 32.0383 62.9811 32.5765C63.4118 33.1148 64.0577 33.3301 64.7036 33.3301C65.5648 33.3301 66.2107 33.0071 66.6414 32.3612C67.1796 31.7153 67.3949 30.8541 67.3949 29.7775Z" fill="white"/>
<path d="M81.1745 29.7775C81.1745 31.5 80.7439 32.7918 79.775 33.8684C78.9138 34.7296 77.9449 35.1602 76.6531 35.1602C75.3612 35.1602 74.3923 34.7296 73.8541 33.7607V39.0357H71.5934V28.2704C71.5934 27.1939 71.5934 26.1173 71.4857 24.9332H73.4235L73.5311 26.548C74.2847 25.3638 75.3612 24.7178 76.8684 24.7178C78.0526 24.7178 79.0214 25.1485 79.775 26.1173C80.7439 26.9786 81.1745 28.1627 81.1745 29.7775ZM78.9138 29.7775C78.9138 28.8087 78.6985 27.9474 78.2679 27.4092C77.8372 26.7633 77.1913 26.4403 76.3301 26.4403C75.7918 26.4403 75.2536 26.6556 74.823 26.9786C74.3923 27.3015 74.0694 27.8398 73.9617 28.3781C73.8541 28.701 73.8541 28.9163 73.8541 29.024V30.7464C73.8541 31.5 74.0694 32.0383 74.5 32.5765C74.9306 33.1148 75.5765 33.3301 76.2225 33.3301C77.0837 33.3301 77.7296 33.0071 78.1602 32.3612C78.6985 31.7153 78.9138 30.8541 78.9138 29.7775Z" fill="white"/>
<path d="M94.0929 30.9617C94.0929 32.1459 93.6622 33.1148 92.9087 33.8684C92.0474 34.7296 90.7556 35.0526 89.1408 35.0526C87.6337 35.0526 86.4495 34.7296 85.5883 34.1913L86.1265 32.3612C87.0954 32.8995 88.1719 33.2224 89.3561 33.2224C90.2173 33.2224 90.8633 33.0071 91.2939 32.6842C91.7245 32.2536 91.9398 31.823 91.9398 31.177C91.9398 30.6388 91.7245 30.1005 91.4015 29.7776C90.9709 29.3469 90.325 29.024 89.4638 28.701C86.9877 27.8398 85.8036 26.4403 85.8036 24.7179C85.8036 23.5337 86.2342 22.6724 87.0954 21.9189C87.9566 21.1653 89.0332 20.8423 90.5403 20.8423C91.8321 20.8423 92.801 21.0577 93.6622 21.4883L93.124 23.3184C92.3704 22.8878 91.5092 22.6724 90.4326 22.6724C89.6791 22.6724 89.0332 22.8878 88.6025 23.2107C88.2796 23.5337 88.0643 23.9643 88.0643 24.5026C88.0643 25.0408 88.2796 25.4714 88.7102 25.902C89.0332 26.225 89.7867 26.548 90.7556 26.9786C91.9398 27.4092 92.801 28.0551 93.4469 28.701C93.7699 29.2393 94.0929 29.9929 94.0929 30.9617Z" fill="white"/>
<path d="M101.413 26.548H98.9372V31.3923C98.9372 32.5765 99.3679 33.2224 100.229 33.2224C100.66 33.2224 100.983 33.2224 101.198 33.1148L101.306 34.8372C100.875 35.0525 100.337 35.0525 99.5832 35.0525C98.7219 35.0525 97.9684 34.8372 97.5378 34.299C96.9995 33.7607 96.7842 32.8995 96.7842 31.6076V26.548H95.277V24.8255H96.7842V22.9954L98.9372 22.3495V24.8255H101.413V26.548Z" fill="white"/>
<path d="M112.502 29.7775C112.502 31.2847 112.071 32.5765 111.21 33.5454C110.241 34.5143 109.057 35.0525 107.55 35.0525C106.042 35.0525 104.858 34.5143 103.997 33.5454C103.136 32.5765 102.705 31.3923 102.705 29.8852C102.705 28.3781 103.136 27.0862 104.105 26.1173C104.966 25.1485 106.258 24.6102 107.765 24.6102C109.272 24.6102 110.456 25.1485 111.317 26.1173C112.071 27.0862 112.502 28.2704 112.502 29.7775ZM110.133 29.8852C110.133 28.9163 109.918 28.1628 109.487 27.5168C109.057 26.7633 108.303 26.3327 107.442 26.3327C106.581 26.3327 105.827 26.7633 105.396 27.5168C104.966 28.1628 104.751 29.024 104.751 29.8852C104.751 30.8541 104.966 31.6077 105.396 32.2536C105.827 33.0071 106.581 33.4378 107.442 33.4378C108.303 33.4378 108.949 33.0071 109.487 32.2536C109.918 31.6077 110.133 30.7464 110.133 29.8852Z" fill="white"/>
<path d="M119.714 26.7633C119.499 26.7633 119.284 26.6556 118.961 26.6556C118.207 26.6556 117.561 26.9786 117.131 27.5168C116.808 28.0551 116.592 28.701 116.592 29.4546V34.7296H114.332V27.8398C114.332 26.6556 114.332 25.6867 114.224 24.7179H116.162L116.269 26.6556H116.377C116.592 26.0097 117.023 25.4714 117.454 25.0408C117.992 24.7179 118.53 24.5025 119.068 24.5025C119.284 24.5025 119.499 24.5025 119.607 24.5025V26.7633H119.714Z" fill="white"/>
<path d="M129.618 29.3469C129.618 29.7775 129.618 30.1005 129.511 30.3158H122.836C122.836 31.2847 123.159 32.0383 123.805 32.5765C124.343 33.0071 125.097 33.3301 125.958 33.3301C126.927 33.3301 127.896 33.2224 128.649 32.8995L128.972 34.4066C128.004 34.8372 126.927 35.0525 125.635 35.0525C124.128 35.0525 122.836 34.6219 121.975 33.6531C121.114 32.7918 120.683 31.5 120.683 29.9929C120.683 28.4857 121.114 27.1939 121.867 26.225C122.729 25.1485 123.913 24.6102 125.42 24.6102C126.819 24.6102 128.004 25.1485 128.649 26.225C129.403 27.0862 129.618 28.1628 129.618 29.3469ZM127.573 28.8087C127.573 28.1628 127.465 27.6245 127.142 27.0862C126.712 26.4403 126.173 26.1173 125.42 26.1173C124.666 26.1173 124.128 26.4403 123.697 26.9786C123.374 27.4092 123.159 28.0551 123.052 28.701H127.573V28.8087Z" fill="white"/>
<path d="M51.5575 14.136H48.8893L48.331 15.7398H47.0868L49.6888 8.85168H50.7627L53.3694 15.7398H52.1205L51.5575 14.136ZM49.2252 13.1709H51.2216L50.2234 10.3135L49.2252 13.1709ZM55.6118 14.2827L56.6952 10.621H57.8826L56.1086 15.7398H55.1103L53.3221 10.621H54.5143L55.6118 14.2827ZM61.5869 15.7398C61.5364 15.642 61.4923 15.4827 61.4544 15.262C61.0886 15.6436 60.6407 15.8344 60.1109 15.8344C59.5968 15.8344 59.1773 15.6878 58.8524 15.3944C58.5276 15.1011 58.3652 14.7384 58.3652 14.3063C58.3652 13.7607 58.567 13.3428 58.9707 13.0527C59.3776 12.7594 59.9579 12.6127 60.7117 12.6127H61.4166V12.2768C61.4166 12.0119 61.3425 11.8006 61.1942 11.6429C61.046 11.482 60.8205 11.4016 60.5177 11.4016C60.2559 11.4016 60.0415 11.4678 59.8743 11.6003C59.7072 11.7296 59.6236 11.8952 59.6236 12.097H58.474C58.474 11.8163 58.567 11.5546 58.7531 11.3117C58.9392 11.0657 59.1915 10.8733 59.51 10.7346C59.8317 10.5958 60.1897 10.5264 60.5839 10.5264C61.1832 10.5264 61.661 10.6778 62.0174 10.9806C62.3738 11.2802 62.5567 11.7028 62.5662 12.2484V14.5571C62.5662 15.0175 62.6308 15.385 62.7601 15.6594V15.7398H61.5869ZM60.3237 14.9119C60.5508 14.9119 60.7637 14.8567 60.9624 14.7463C61.1643 14.6359 61.3156 14.4877 61.4166 14.3016V13.3365H60.7968C60.3711 13.3365 60.0509 13.4106 59.8365 13.5589C59.622 13.7071 59.5148 13.9168 59.5148 14.1881C59.5148 14.4088 59.5873 14.5855 59.7324 14.7179C59.8806 14.8472 60.0777 14.9119 60.3237 14.9119ZM64.9931 15.7398H63.8435V10.621H64.9931V15.7398ZM63.7725 9.29165C63.7725 9.11503 63.8277 8.96837 63.9381 8.85168C64.0516 8.73498 64.2125 8.67664 64.4207 8.67664C64.6288 8.67664 64.7897 8.73498 64.9032 8.85168C65.0167 8.96837 65.0735 9.11503 65.0735 9.29165C65.0735 9.46511 65.0167 9.61019 64.9032 9.72689C64.7897 9.84043 64.6288 9.8972 64.4207 9.8972C64.2125 9.8972 64.0516 9.84043 63.9381 9.72689C63.8277 9.61019 63.7725 9.46511 63.7725 9.29165ZM67.4721 15.7398H66.3225V8.47321H67.4721V15.7398ZM71.7866 15.7398C71.7361 15.642 71.692 15.4827 71.6541 15.262C71.2883 15.6436 70.8404 15.8344 70.3106 15.8344C69.7965 15.8344 69.377 15.6878 69.0522 15.3944C68.7273 15.1011 68.5649 14.7384 68.5649 14.3063C68.5649 13.7607 68.7667 13.3428 69.1704 13.0527C69.5773 12.7594 70.1576 12.6127 70.9114 12.6127H71.6163V12.2768C71.6163 12.0119 71.5422 11.8006 71.3939 11.6429C71.2457 11.482 71.0202 11.4016 70.7174 11.4016C70.4556 11.4016 70.2412 11.4678 70.074 11.6003C69.9069 11.7296 69.8233 11.8952 69.8233 12.097H68.6737C68.6737 11.8163 68.7667 11.5546 68.9528 11.3117C69.1389 11.0657 69.3912 10.8733 69.7097 10.7346C70.0314 10.5958 70.3894 10.5264 70.7836 10.5264C71.3829 10.5264 71.8607 10.6778 72.2171 10.9806C72.5735 11.2802 72.7564 11.7028 72.7659 12.2484V14.5571C72.7659 15.0175 72.8305 15.385 72.9598 15.6594V15.7398H71.7866ZM70.5234 14.9119C70.7505 14.9119 70.9634 14.8567 71.1621 14.7463C71.364 14.6359 71.5153 14.4877 71.6163 14.3016V13.3365H70.9965C70.5708 13.3365 70.2506 13.4106 70.0362 13.5589C69.8217 13.7071 69.7145 13.9168 69.7145 14.1881C69.7145 14.4088 69.787 14.5855 69.9321 14.7179C70.0803 14.8472 70.2774 14.9119 70.5234 14.9119ZM78.4618 13.2324C78.4618 14.0272 78.2836 14.6596 77.9272 15.1295C77.574 15.5994 77.0867 15.8344 76.4654 15.8344C75.8662 15.8344 75.3994 15.6184 75.0651 15.1863L75.0083 15.7398H73.9675V8.47321H75.1171V11.113C75.4483 10.7219 75.8945 10.5264 76.4559 10.5264C77.0804 10.5264 77.5708 10.7582 77.9272 11.2218C78.2836 11.6855 78.4618 12.3336 78.4618 13.1662V13.2324ZM77.3122 13.1331C77.3122 12.578 77.2144 12.1617 77.0189 11.8842C76.8234 11.6066 76.5395 11.4678 76.1673 11.4678C75.669 11.4678 75.319 11.6855 75.1171 12.1207V14.2307C75.3221 14.6754 75.6753 14.8977 76.1768 14.8977C76.5364 14.8977 76.8139 14.7637 77.0094 14.4956C77.205 14.2275 77.3059 13.8222 77.3122 13.2798V13.1331ZM80.6522 15.7398H79.5026V8.47321H80.6522V15.7398ZM84.1625 15.8344C83.4339 15.8344 82.8426 15.6058 82.3884 15.1484C81.9374 14.688 81.7119 14.0761 81.7119 13.3129V13.1709C81.7119 12.66 81.8097 12.2043 82.0052 11.8037C82.2039 11.4 82.4815 11.0862 82.8378 10.8623C83.1942 10.6384 83.5916 10.5264 84.03 10.5264C84.727 10.5264 85.2648 10.7487 85.6432 11.1934C86.0249 11.6381 86.2157 12.2674 86.2157 13.0811V13.5447H82.871C82.9057 13.9673 83.046 14.3016 83.292 14.5476C83.5412 14.7936 83.8534 14.9166 84.2287 14.9166C84.7554 14.9166 85.1843 14.7037 85.5155 14.278L86.1352 14.8693C85.9302 15.1752 85.6559 15.4134 85.3121 15.5837C84.9715 15.7508 84.5883 15.8344 84.1625 15.8344ZM84.0253 11.4489C83.7099 11.4489 83.4544 11.5593 83.2589 11.7801C83.0665 12.0008 82.9435 12.3084 82.8899 12.7026H85.0803V12.6174C85.055 12.2327 84.9525 11.9425 84.7728 11.747C84.593 11.5483 84.3438 11.4489 84.0253 11.4489ZM89.3096 13.1331C89.3096 12.6316 89.409 12.1806 89.6077 11.7801C89.8064 11.3764 90.0855 11.0673 90.445 10.8528C90.8046 10.6352 91.2178 10.5264 91.6845 10.5264C92.3752 10.5264 92.935 10.7487 93.364 11.1934C93.7961 11.6381 94.0295 12.2279 94.0641 12.9628L94.0689 13.2324C94.0689 13.7371 93.9711 14.1881 93.7756 14.5855C93.5832 14.9829 93.3056 15.2904 92.9429 15.508C92.5834 15.7256 92.1671 15.8344 91.694 15.8344C90.9717 15.8344 90.393 15.5947 89.9578 15.1153C89.5257 14.6328 89.3096 13.991 89.3096 13.1899V13.1331ZM90.4592 13.2324C90.4592 13.7591 90.568 14.1723 90.7857 14.4719C91.0033 14.7684 91.3061 14.9166 91.694 14.9166C92.0819 14.9166 92.3831 14.7652 92.5976 14.4625C92.8152 14.1597 92.924 13.7166 92.924 13.1331C92.924 12.6159 92.812 12.2058 92.5881 11.9031C92.3673 11.6003 92.0661 11.4489 91.6845 11.4489C91.3092 11.4489 91.0112 11.5987 90.7904 11.8983C90.5696 12.1948 90.4592 12.6395 90.4592 13.2324ZM96.1079 10.621L96.141 11.2124C96.5195 10.7551 97.0162 10.5264 97.6312 10.5264C98.6972 10.5264 99.2397 11.1367 99.2586 12.3572V15.7398H98.109V12.4235C98.109 12.0986 98.0381 11.8589 97.8961 11.7044C97.7574 11.5467 97.5287 11.4678 97.2102 11.4678C96.7465 11.4678 96.4012 11.6776 96.1741 12.097V15.7398H95.0245V10.621H96.1079Z" fill="white"/>
</g>
<defs>
<filter id="filter0_d_103_12" x="0.21939" y="0.280617" width="146.408" height="51.6735" filterUnits="userSpaceOnUse" color-interpolation-filters="sRGB">
<feFlood flood-opacity="0" result="BackgroundImageFix"/>
<feColorMatrix in="SourceAlpha" type="matrix" values="0 0 0 0 0 0 0 0 0 0 0 0 0 0 0 0 0 0 127 0" result="hardAlpha"/>
<feOffset dy="3.22959"/>
<feGaussianBlur stdDeviation="2.15306"/>
<feColorMatrix type="matrix" values="0 0 0 0 0 0 0 0 0 0 0 0 0 0 0 0 0 0 0.25 0"/>
<feBlend mode="normal" in2="BackgroundImageFix" result="effect1_dropShadow_103_12"/>
<feBlend mode="normal" in="SourceGraphic" in2="effect1_dropShadow_103_12" result="shape"/>
</filter>
</defs>
</svg>
