<svg width="25" height="25" viewBox="0 0 25 25" fill="none" xmlns="http://www.w3.org/2000/svg">
<path d="M12.5 0.416656C10.1102 0.416656 7.77398 1.12533 5.78689 2.45307C3.79979 3.7808 2.25104 5.66796 1.33648 7.8759C0.421923 10.0838 0.182632 12.5134 0.64887 14.8573C1.11511 17.2013 2.26593 19.3543 3.95582 21.0442C5.6457 22.7341 7.79875 23.8849 10.1427 24.3511C12.4866 24.8174 14.9162 24.5781 17.1241 23.6635C19.3321 22.749 21.2192 21.2002 22.5469 19.2131C23.8747 17.226 24.5834 14.8898 24.5834 12.5C24.5834 10.9132 24.2708 9.34192 23.6636 7.8759C23.0563 6.40988 22.1663 5.07782 21.0442 3.95578C19.9222 2.83374 18.5901 1.94369 17.1241 1.33645C15.6581 0.729201 14.0868 0.416656 12.5 0.416656ZM12.5 22.1667C10.5881 22.1667 8.71919 21.5997 7.12951 20.5375C5.53984 19.4753 4.30084 17.9656 3.56919 16.1993C2.83754 14.4329 2.64611 12.4893 3.0191 10.6141C3.39209 8.73897 4.31275 7.01653 5.66466 5.66462C7.01657 4.31272 8.739 3.39206 10.6142 3.01907C12.4893 2.64608 14.4329 2.83751 16.1993 3.56915C17.9657 4.3008 19.4754 5.5398 20.5376 7.12948C21.5998 8.71915 22.1667 10.5881 22.1667 12.5C22.1667 15.0638 21.1482 17.5225 19.3354 19.3354C17.5225 21.1482 15.0638 22.1667 12.5 22.1667Z" fill="#ABABAD"/>
<path d="M15.7746 9.2254C15.6623 9.11215 15.5287 9.02226 15.3814 8.96091C15.2342 8.89956 15.0762 8.86798 14.9167 8.86798C14.7572 8.86798 14.5993 8.89956 14.452 8.96091C14.3048 9.02226 14.1711 9.11215 14.0588 9.2254L12.5 10.7962L10.9413 9.2254C10.7138 8.99787 10.4052 8.87004 10.0834 8.87004C9.7616 8.87004 9.453 8.99787 9.22546 9.2254C8.99793 9.45294 8.8701 9.76154 8.8701 10.0833C8.8701 10.4051 8.99793 10.7137 9.22546 10.9412L10.7963 12.5L9.22546 14.0587C9.11221 14.1711 9.02232 14.3047 8.96097 14.452C8.89963 14.5992 8.86804 14.7571 8.86804 14.9167C8.86804 15.0762 8.89963 15.2341 8.96097 15.3814C9.02232 15.5286 9.11221 15.6622 9.22546 15.7746C9.3378 15.8878 9.47144 15.9777 9.61868 16.0391C9.76593 16.1004 9.92387 16.132 10.0834 16.132C10.2429 16.132 10.4008 16.1004 10.5481 16.0391C10.6953 15.9777 10.829 15.8878 10.9413 15.7746L12.5 14.2037L14.0588 15.7746C14.1711 15.8878 14.3048 15.9777 14.452 16.0391C14.5993 16.1004 14.7572 16.132 14.9167 16.132C15.0762 16.132 15.2342 16.1004 15.3814 16.0391C15.5287 15.9777 15.6623 15.8878 15.7746 15.7746C15.8879 15.6622 15.9778 15.5286 16.0391 15.3814C16.1005 15.2341 16.1321 15.0762 16.1321 14.9167C16.1321 14.7571 16.1005 14.5992 16.0391 14.452C15.9778 14.3047 15.8879 14.1711 15.7746 14.0587L14.2038 12.5L15.7746 10.9412C15.8879 10.8289 15.9778 10.6953 16.0391 10.548C16.1005 10.4008 16.1321 10.2428 16.1321 10.0833C16.1321 9.92381 16.1005 9.76587 16.0391 9.61862C15.9778 9.47138 15.8879 9.33773 15.7746 9.2254Z" fill="#ABABAD"/>
</svg>
