<svg width="147" height="52" viewBox="0 0 147 52" fill="none" xmlns="http://www.w3.org/2000/svg">
<g filter="url(#filter0_d_108_0)">
<path d="M138.056 44.3936H8.89958C6.53171 44.3936 4.59436 42.4562 4.59436 40.0884V5.64659C4.59436 3.27872 6.53171 1.34137 8.89958 1.34137H138.056C140.424 1.34137 142.361 3.27872 142.361 5.64659V40.0884C142.361 42.4562 140.424 44.3936 138.056 44.3936Z" fill="#0B77BE"/>
<path d="M33.6547 22.6522C33.6547 19.3157 36.4531 17.7012 36.5607 17.5936C34.9462 15.3333 32.5784 15.0104 31.7173 14.9028C29.6723 14.6876 27.6274 16.0868 26.6587 16.0868C25.5824 16.0868 23.9679 14.9028 22.2458 14.9028C19.9856 14.9028 17.9406 16.1944 16.7567 18.2394C14.3888 22.3293 16.1109 28.3566 18.3711 31.6932C19.5551 33.3076 20.8466 35.1374 22.5687 35.0297C24.2908 34.9221 24.9366 33.9534 26.9816 33.9534C29.0266 33.9534 29.5647 35.0297 31.3944 35.0297C33.2241 35.0297 34.4081 33.4153 35.4844 31.8008C36.776 29.9711 37.3141 28.1414 37.3141 28.0337C37.2065 27.9261 33.6547 26.6345 33.6547 22.6522Z" fill="white"/>
<path d="M30.3181 12.7502C31.1791 11.5663 31.8249 10.0594 31.7173 8.44498C30.4257 8.55261 28.7036 9.30602 27.8426 10.49C26.9816 11.4586 26.2281 13.0731 26.4434 14.5799C27.8426 14.6875 29.3494 13.8265 30.3181 12.7502Z" fill="white"/>
<path d="M58.1944 34.8144H55.8265L54.535 30.7245H50.0145L48.8306 34.8144H46.5703L51.0908 20.9301H53.8892L58.1944 34.8144ZM54.1044 29.0024L52.9205 25.343C52.8129 25.0201 52.5976 24.0514 52.1671 22.7598C52.0595 23.298 51.8442 24.2667 51.5213 25.343L50.3374 29.0024H54.1044Z" fill="white"/>
<path d="M69.7108 29.7558C69.7108 31.4779 69.2803 32.7695 68.3116 33.8458C67.4506 34.7068 66.4819 35.1374 65.1903 35.1374C63.8987 35.1374 62.9301 34.7068 62.3919 33.7382V39.012H60.1317V28.249C60.1317 27.1727 60.1317 26.0964 60.024 24.9125H61.9614L62.069 26.5269C62.8224 25.343 63.8987 24.6972 65.4056 24.6972C66.5895 24.6972 67.5582 25.1277 68.3116 26.0964C69.2803 26.9574 69.7108 28.1414 69.7108 29.7558ZM67.4506 29.7558C67.4506 28.7871 67.2353 27.9261 66.8048 27.388C66.3743 26.7422 65.7285 26.4193 64.8674 26.4193C64.3293 26.4193 63.7911 26.6345 63.3606 26.9574C62.9301 27.2803 62.6072 27.8185 62.4996 28.3566C62.3919 28.6795 62.3919 28.8948 62.3919 29.0024V30.7245C62.3919 31.4779 62.6072 32.0161 63.0377 32.5542C63.4682 33.0924 64.114 33.3076 64.7598 33.3076C65.6208 33.3076 66.2666 32.9847 66.6971 32.339C67.2353 31.6932 67.4506 30.8321 67.4506 29.7558Z" fill="white"/>
<path d="M81.2273 29.7558C81.2273 31.4779 80.7967 32.7695 79.8281 33.8458C78.967 34.7068 77.9984 35.1374 76.7068 35.1374C75.4152 35.1374 74.4465 34.7068 73.9084 33.7382V39.012H71.6482V28.249C71.6482 27.1727 71.6482 26.0964 71.5405 24.9125H73.4779L73.5855 26.5269C74.3389 25.343 75.4152 24.6972 76.9221 24.6972C78.106 24.6972 79.0747 25.1277 79.8281 26.0964C80.7967 26.9574 81.2273 28.1414 81.2273 29.7558ZM78.967 29.7558C78.967 28.7871 78.7518 27.9261 78.3212 27.388C77.8907 26.7422 77.2449 26.4193 76.3839 26.4193C75.8457 26.4193 75.3076 26.6345 74.8771 26.9574C74.4465 27.2803 74.1237 27.8185 74.016 28.3566C73.9084 28.6795 73.9084 28.8948 73.9084 29.0024V30.7245C73.9084 31.4779 74.1237 32.0161 74.5542 32.5542C74.9847 33.0924 75.6305 33.3076 76.2763 33.3076C77.1373 33.3076 77.7831 32.9847 78.2136 32.339C78.7518 31.6932 78.967 30.8321 78.967 29.7558Z" fill="white"/>
<path d="M94.1431 30.9398C94.1431 32.1237 93.7126 33.0924 92.9591 33.8458C92.0981 34.7068 90.8065 35.0297 89.1921 35.0297C87.6852 35.0297 86.5013 34.7068 85.6403 34.1687L86.1784 32.339C87.1471 32.8771 88.2234 33.2 89.4073 33.2C90.2684 33.2 90.9142 32.9847 91.3447 32.6618C91.7752 32.2313 91.9905 31.8008 91.9905 31.155C91.9905 30.6169 91.7752 30.0787 91.4523 29.7558C91.0218 29.3253 90.376 29.0024 89.515 28.6795C87.0395 27.8185 85.8555 26.4193 85.8555 24.6972C85.8555 23.5133 86.286 22.6522 87.1471 21.8988C88.0081 21.1454 89.0844 20.8225 90.5913 20.8225C91.8828 20.8225 92.8515 21.0378 93.7125 21.4683L93.1744 23.298C92.421 22.8675 91.5599 22.6522 90.4836 22.6522C89.7302 22.6522 89.0844 22.8675 88.6539 23.1904C88.331 23.5133 88.1158 23.9438 88.1158 24.4819C88.1158 25.0201 88.331 25.4506 88.7615 25.8811C89.0844 26.204 89.8379 26.5269 90.8065 26.9574C91.9905 27.3879 92.8515 28.0337 93.4973 28.6795C93.8202 29.2177 94.1431 29.9711 94.1431 30.9398Z" fill="white"/>
<path d="M101.462 26.5269H98.9863V31.3703C98.9863 32.5542 99.4169 33.2 100.278 33.2C100.708 33.2 101.031 33.2 101.247 33.0924L101.354 34.8145C100.924 35.0297 100.386 35.0297 99.6321 35.0297C98.7711 35.0297 98.0177 34.8145 97.5872 34.2763C97.049 33.7381 96.8337 32.8771 96.8337 31.5855V26.5269H95.3269V24.8048H96.8337V22.9751L98.9863 22.3293V24.8048H101.462V26.5269Z" fill="white"/>
<path d="M112.548 29.7558C112.548 31.2626 112.117 32.5542 111.256 33.5229C110.288 34.4916 109.104 35.0297 107.597 35.0297C106.09 35.0297 104.906 34.4916 104.045 33.5229C103.184 32.5542 102.753 31.3703 102.753 29.8635C102.753 28.3566 103.184 27.0651 104.153 26.0964C105.014 25.1277 106.305 24.5896 107.812 24.5896C109.319 24.5896 110.503 25.1277 111.364 26.0964C112.117 27.0651 112.548 28.249 112.548 29.7558ZM110.18 29.8635C110.18 28.8948 109.965 28.1414 109.534 27.4956C109.104 26.7422 108.35 26.3116 107.489 26.3116C106.628 26.3116 105.875 26.7422 105.444 27.4956C105.014 28.1414 104.798 29.0024 104.798 29.8635C104.798 30.8321 105.014 31.5855 105.444 32.2313C105.875 32.9847 106.628 33.4153 107.489 33.4153C108.35 33.4153 108.996 32.9847 109.534 32.2313C109.965 31.5855 110.18 30.7245 110.18 29.8635Z" fill="white"/>
<path d="M119.759 26.7422C119.544 26.7422 119.329 26.6345 119.006 26.6345C118.252 26.6345 117.606 26.9574 117.176 27.4956C116.853 28.0337 116.638 28.6795 116.638 29.4329V34.7068H114.378V27.8185C114.378 26.6345 114.378 25.6659 114.27 24.6972H116.207L116.315 26.6345H116.423C116.638 25.9888 117.068 25.4506 117.499 25.0201C118.037 24.6972 118.575 24.4819 119.113 24.4819C119.329 24.4819 119.544 24.4819 119.651 24.4819V26.7422H119.759Z" fill="white"/>
<path d="M129.661 29.3253C129.661 29.7558 129.661 30.0787 129.553 30.294H122.88C122.88 31.2626 123.203 32.0161 123.849 32.5542C124.387 32.9847 125.141 33.3076 126.002 33.3076C126.97 33.3076 127.939 33.2 128.692 32.8771L129.015 34.3839C128.047 34.8145 126.97 35.0297 125.679 35.0297C124.172 35.0297 122.88 34.5992 122.019 33.6305C121.158 32.7695 120.728 31.4779 120.728 29.9711C120.728 28.4643 121.158 27.1727 121.912 26.204C122.773 25.1277 123.957 24.5896 125.464 24.5896C126.863 24.5896 128.047 25.1277 128.692 26.204C129.446 27.0651 129.661 28.1414 129.661 29.3253ZM127.616 28.7871C127.616 28.1414 127.509 27.6032 127.186 27.0651C126.755 26.4193 126.217 26.0964 125.464 26.0964C124.71 26.0964 124.172 26.4193 123.741 26.9574C123.419 27.3879 123.203 28.0337 123.096 28.6795H127.616V28.7871Z" fill="white"/>
<path d="M51.6165 14.1195H48.9489L48.3908 15.7229H47.1468L49.7483 8.83622H50.8219L53.4281 15.7229H52.1794L51.6165 14.1195ZM49.2847 13.1546H51.2807L50.2827 10.2977L49.2847 13.1546ZM55.67 14.2661L56.7532 10.6052H57.9404L56.1667 15.7229H55.1687L53.3808 10.6052H54.5727L55.67 14.2661ZM61.6438 15.7229C61.5934 15.6251 61.5492 15.4659 61.5114 15.2452C61.1456 15.6267 60.6979 15.8175 60.1681 15.8175C59.6541 15.8175 59.2348 15.6709 58.91 15.3776C58.5852 15.0844 58.4228 14.7217 58.4228 14.2897C58.4228 13.7442 58.6246 13.3264 59.0282 13.0363C59.435 12.7431 60.0152 12.5965 60.7688 12.5965H61.4736V12.2606C61.4736 11.9958 61.3995 11.7845 61.2513 11.6268C61.1031 11.466 60.8776 11.3856 60.5749 11.3856C60.3132 11.3856 60.0988 11.4518 59.9316 11.5843C59.7645 11.7136 59.681 11.8791 59.681 12.0809H58.5316C58.5316 11.8003 58.6246 11.5385 58.8107 11.2957C58.9967 11.0498 59.249 10.8574 59.5674 10.7187C59.8891 10.58 60.247 10.5106 60.6411 10.5106C61.2402 10.5106 61.7179 10.6619 62.0743 10.9647C62.4306 11.2642 62.6135 11.6867 62.6229 12.2323V14.5404C62.6229 15.0008 62.6876 15.3682 62.8168 15.6425V15.7229H61.6438ZM60.381 14.8952C60.608 14.8952 60.8208 14.84 61.0195 14.7296C61.2213 14.6193 61.3727 14.4711 61.4736 14.285V13.3201H60.854C60.4283 13.3201 60.1082 13.3942 59.8938 13.5424C59.6794 13.6906 59.5722 13.9003 59.5722 14.1715C59.5722 14.3922 59.6447 14.5688 59.7897 14.7012C59.9379 14.8305 60.135 14.8952 60.381 14.8952ZM65.0493 15.7229H63.9V10.6052H65.0493V15.7229ZM63.829 9.2761C63.829 9.09952 63.8842 8.95289 63.9946 8.83622C64.1081 8.71955 64.2689 8.66122 64.477 8.66122C64.6851 8.66122 64.846 8.71955 64.9595 8.83622C65.073 8.95289 65.1297 9.09952 65.1297 9.2761C65.1297 9.44953 65.073 9.59457 64.9595 9.71124C64.846 9.82476 64.6851 9.88152 64.477 9.88152C64.2689 9.88152 64.1081 9.82476 63.9946 9.71124C63.8842 9.59457 63.829 9.44953 63.829 9.2761ZM67.5278 15.7229H66.3784V8.45783H67.5278V15.7229ZM71.8414 15.7229C71.791 15.6251 71.7468 15.4659 71.709 15.2452C71.3432 15.6267 70.8954 15.8175 70.3657 15.8175C69.8517 15.8175 69.4323 15.6709 69.1076 15.3776C68.7828 15.0844 68.6204 14.7217 68.6204 14.2897C68.6204 13.7442 68.8222 13.3264 69.2258 13.0363C69.6326 12.7431 70.2128 12.5965 70.9664 12.5965H71.6711V12.2606C71.6711 11.9958 71.597 11.7845 71.4488 11.6268C71.3006 11.466 71.0752 11.3856 70.7725 11.3856C70.5107 11.3856 70.2963 11.4518 70.1292 11.5843C69.9621 11.7136 69.8785 11.8791 69.8785 12.0809H68.7292C68.7292 11.8003 68.8222 11.5385 69.0082 11.2957C69.1943 11.0498 69.4465 10.8574 69.765 10.7187C70.0866 10.58 70.4445 10.5106 70.8387 10.5106C71.4378 10.5106 71.9155 10.6619 72.2718 10.9647C72.6281 11.2642 72.811 11.6867 72.8205 12.2323V14.5404C72.8205 15.0008 72.8851 15.3682 73.0144 15.6425V15.7229H71.8414ZM70.5785 14.8952C70.8056 14.8952 71.0184 14.84 71.2171 14.7296C71.4189 14.6193 71.5702 14.4711 71.6711 14.285V13.3201H71.0515C70.6258 13.3201 70.3058 13.3942 70.0914 13.5424C69.8769 13.6906 69.7697 13.9003 69.7697 14.1715C69.7697 14.3922 69.8423 14.5688 69.9873 14.7012C70.1355 14.8305 70.3326 14.8952 70.5785 14.8952ZM78.5152 13.2161C78.5152 14.0107 78.3371 14.6429 77.9808 15.1127C77.6276 15.5826 77.1404 15.8175 76.5192 15.8175C75.9201 15.8175 75.4534 15.6015 75.1192 15.1695L75.0624 15.7229H74.0219V8.45783H75.1712V11.0971C75.5023 10.7061 75.9485 10.5106 76.5098 10.5106C77.1341 10.5106 77.6245 10.7424 77.9808 11.2059C78.3371 11.6694 78.5152 12.3174 78.5152 13.1499V13.2161ZM77.3659 13.1167C77.3659 12.5618 77.2681 12.1455 77.0726 11.8681C76.8771 11.5906 76.5933 11.4518 76.2213 11.4518C75.723 11.4518 75.373 11.6694 75.1712 12.1046V14.2141C75.3762 14.6587 75.7294 14.881 76.2307 14.881C76.5902 14.881 76.8677 14.747 77.0632 14.4789C77.2587 14.2109 77.3596 13.8057 77.3659 13.2634V13.1167ZM80.7052 15.7229H79.5558V8.45783H80.7052V15.7229ZM84.2147 15.8175C83.4863 15.8175 82.8951 15.5889 82.441 15.1317C81.9901 14.6713 81.7647 14.0596 81.7647 13.2965V13.1546C81.7647 12.6438 81.8624 12.1881 82.0579 11.7877C82.2566 11.384 82.534 11.0703 82.8904 10.8464C83.2467 10.6225 83.644 10.5106 84.0823 10.5106C84.7791 10.5106 85.3168 10.7329 85.6952 11.1775C86.0767 11.6221 86.2675 12.2512 86.2675 13.0647V13.5282H82.9235C82.9582 13.9508 83.0985 14.285 83.3444 14.531C83.5935 14.7769 83.9057 14.8999 84.2809 14.8999C84.8075 14.8999 85.2364 14.6871 85.5675 14.2614L86.1871 14.8526C85.9821 15.1585 85.7078 15.3965 85.3641 15.5668C85.0235 15.7339 84.6404 15.8175 84.2147 15.8175ZM84.0776 11.4329C83.7622 11.4329 83.5068 11.5433 83.3113 11.764C83.119 11.9847 82.996 12.2922 82.9424 12.6863H85.1323V12.6012C85.1071 12.2165 85.0046 11.9264 84.8249 11.7309C84.6451 11.5322 84.396 11.4329 84.0776 11.4329ZM89.3608 13.1167C89.3608 12.6154 89.4601 12.1645 89.6588 11.764C89.8574 11.3604 90.1365 11.0514 90.496 10.837C90.8554 10.6194 91.2685 10.5106 91.7352 10.5106C92.4258 10.5106 92.9855 10.7329 93.4143 11.1775C93.8463 11.6221 94.0796 12.2118 94.1143 12.9465L94.119 13.2161C94.119 13.7206 94.0213 14.1715 93.8258 14.5688C93.6334 14.9661 93.356 15.2736 92.9933 15.4911C92.6339 15.7087 92.2176 15.8175 91.7447 15.8175C91.0226 15.8175 90.4439 15.5778 90.0088 15.0986C89.5768 14.6161 89.3608 13.9744 89.3608 13.1735V13.1167ZM90.5102 13.2161C90.5102 13.7427 90.6189 14.1557 90.8365 14.4553C91.0541 14.7517 91.3568 14.8999 91.7447 14.8999C92.1325 14.8999 92.4336 14.7485 92.6481 14.4458C92.8656 14.1431 92.9744 13.7001 92.9744 13.1167C92.9744 12.5996 92.8625 12.1897 92.6386 11.887C92.4179 11.5843 92.1167 11.4329 91.7352 11.4329C91.36 11.4329 91.062 11.5827 90.8412 11.8822C90.6205 12.1787 90.5102 12.6233 90.5102 13.2161ZM96.1576 10.6052L96.1907 11.1964C96.5691 10.7392 97.0657 10.5106 97.6806 10.5106C98.7464 10.5106 99.2888 11.1207 99.3077 12.341V15.7229H98.1583V12.4073C98.1583 12.0825 98.0874 11.8428 97.9455 11.6883C97.8068 11.5307 97.5781 11.4518 97.2597 11.4518C96.7961 11.4518 96.4509 11.6615 96.2238 12.0809V15.7229H95.0745V10.6052H96.1576Z" fill="white"/>
</g>
<defs>
<filter id="filter0_d_108_0" x="0.289139" y="0.265064" width="146.378" height="51.6627" filterUnits="userSpaceOnUse" color-interpolation-filters="sRGB">
<feFlood flood-opacity="0" result="BackgroundImageFix"/>
<feColorMatrix in="SourceAlpha" type="matrix" values="0 0 0 0 0 0 0 0 0 0 0 0 0 0 0 0 0 0 127 0" result="hardAlpha"/>
<feOffset dy="3.22892"/>
<feGaussianBlur stdDeviation="2.15261"/>
<feColorMatrix type="matrix" values="0 0 0 0 0 0 0 0 0 0 0 0 0 0 0 0 0 0 0.25 0"/>
<feBlend mode="normal" in2="BackgroundImageFix" result="effect1_dropShadow_108_0"/>
<feBlend mode="normal" in="SourceGraphic" in2="effect1_dropShadow_108_0" result="shape"/>
</filter>
</defs>
</svg>
