<svg width="147" height="52" viewBox="0 0 147 52" fill="none" xmlns="http://www.w3.org/2000/svg">
<g filter="url(#filter0_d_108_53)">
<path d="M138.015 44.398H8.83163C6.46327 44.398 4.52551 42.4602 4.52551 40.0918V5.64285C4.52551 3.27449 6.46327 1.33673 8.83163 1.33673H138.015C140.384 1.33673 142.321 3.27449 142.321 5.64285V40.0918C142.321 42.4602 140.384 44.398 138.015 44.398Z" fill="#5D5DBB"/>
<path d="M48.4262 29.6503V34.4847H46.1654V21.4738H51.1427C52.5963 21.4738 53.7491 21.8521 54.601 22.6087C55.4588 23.3653 55.8878 24.3661 55.8878 25.6112C55.8878 26.8861 55.4678 27.878 54.6278 28.5869C53.7938 29.2958 52.6231 29.6503 51.1159 29.6503H48.4262ZM48.4262 27.8363H51.1427C51.947 27.8363 52.5606 27.6486 52.9836 27.2733C53.4065 26.892 53.618 26.344 53.618 25.6291C53.618 24.9261 53.4036 24.3661 52.9746 23.9491C52.5457 23.5261 51.9559 23.3087 51.2053 23.2968H48.4262V27.8363ZM59.9715 34.4847H57.8001V20.7589H59.9715V34.4847ZM68.1212 34.4847C68.0259 34.3 67.9425 33.9992 67.871 33.5822C67.18 34.303 66.334 34.6634 65.3332 34.6634C64.3621 34.6634 63.5698 34.3864 62.9562 33.8324C62.3426 33.2783 62.0358 32.5932 62.0358 31.7771C62.0358 30.7465 62.417 29.9571 63.1796 29.409C63.9481 28.855 65.0442 28.578 66.468 28.578H67.7995V27.9435C67.7995 27.4431 67.6595 27.0439 67.3795 26.7461C67.0995 26.4423 66.6736 26.2903 66.1017 26.2903C65.6072 26.2903 65.2021 26.4154 64.8864 26.6657C64.5706 26.9099 64.4128 27.2227 64.4128 27.6039H62.2413C62.2413 27.0737 62.417 26.5793 62.7685 26.1206C63.12 25.6559 63.5966 25.2925 64.1983 25.0304C64.8059 24.7682 65.4821 24.6372 66.2268 24.6372C67.3587 24.6372 68.2612 24.9231 68.9344 25.495C69.6076 26.061 69.9531 26.8593 69.971 27.8899V32.2507C69.971 33.1205 70.0931 33.8145 70.3374 34.3328V34.4847H68.1212ZM65.7353 32.9209C66.1642 32.9209 66.5663 32.8166 66.9417 32.6081C67.3229 32.3996 67.6089 32.1196 67.7995 31.7681V29.9452H66.6289C65.8247 29.9452 65.22 30.0852 64.8149 30.3652C64.4098 30.6452 64.2072 31.0413 64.2072 31.5537C64.2072 31.9707 64.3442 32.3043 64.6183 32.5545C64.8983 32.7988 65.2706 32.9209 65.7353 32.9209ZM75.4845 31.375L77.4504 24.8159H79.7649L75.9224 35.9502C75.3326 37.5766 74.3318 38.3897 72.9199 38.3897C72.6041 38.3897 72.2556 38.3361 71.8744 38.2289V36.5489L72.2854 36.5757C72.8335 36.5757 73.2445 36.4745 73.5186 36.2719C73.7986 36.0753 74.019 35.7417 74.1799 35.2711L74.4926 34.44L71.0969 24.8159H73.4382L75.4845 31.375ZM92.5881 31.1337C92.5881 30.5618 92.3856 30.1209 91.9805 29.8111C91.5813 29.5014 90.8575 29.1886 89.809 28.8729C88.7605 28.5571 87.9265 28.2056 87.3069 27.8184C86.1214 27.0737 85.5286 26.1027 85.5286 24.9053C85.5286 23.8568 85.9546 22.9929 86.8065 22.3138C87.6643 21.6347 88.7754 21.2951 90.1396 21.2951C91.0451 21.2951 91.8524 21.4619 92.5613 21.7955C93.2702 22.1291 93.8272 22.6057 94.2323 23.2253C94.6374 23.8389 94.84 24.521 94.84 25.2716H92.5881C92.5881 24.5925 92.3736 24.0623 91.9447 23.681C91.5217 23.2938 90.9141 23.1002 90.1218 23.1002C89.383 23.1002 88.8082 23.258 88.3971 23.5738C87.992 23.8895 87.7894 24.3304 87.7894 24.8963C87.7894 25.3729 88.0099 25.7721 88.4507 26.0937C88.8916 26.4095 89.6184 26.7193 90.6311 27.0231C91.6439 27.321 92.457 27.6635 93.0707 28.0507C93.6843 28.432 94.134 28.8729 94.42 29.3733C94.7059 29.8677 94.8489 30.4486 94.8489 31.1158C94.8489 32.2 94.4319 33.0639 93.5979 33.7073C92.7698 34.3447 91.6439 34.6634 90.2201 34.6634C89.2788 34.6634 88.412 34.4907 87.6197 34.1451C86.8333 33.7936 86.2197 33.3111 85.7788 32.6975C85.344 32.0839 85.1265 31.369 85.1265 30.5528H87.3873C87.3873 31.2915 87.6316 31.8635 88.1201 32.2686C88.6086 32.6737 89.3086 32.8762 90.2201 32.8762C91.0064 32.8762 91.5962 32.7183 91.9894 32.4026C92.3885 32.0809 92.5881 31.6579 92.5881 31.1337ZM99.3438 22.4657V24.8159H101.051V26.4244H99.3438V31.8218C99.3438 32.1911 99.4152 32.4592 99.5582 32.626C99.7072 32.7868 99.9693 32.8673 100.345 32.8673C100.595 32.8673 100.848 32.8375 101.104 32.7779V34.4579C100.61 34.5949 100.133 34.6634 99.6744 34.6634C98.0063 34.6634 97.1723 33.743 97.1723 31.9022V26.4244H95.5817V24.8159H97.1723V22.4657H99.3438ZM102.042 29.5609C102.042 28.6137 102.23 27.7618 102.605 27.0052C102.981 26.2427 103.508 25.6589 104.187 25.2538C104.866 24.8427 105.647 24.6372 106.528 24.6372C107.833 24.6372 108.89 25.0572 109.701 25.8972C110.517 26.7371 110.958 27.8512 111.023 29.2392L111.032 29.7486C111.032 30.7018 110.847 31.5537 110.478 32.3043C110.115 33.0549 109.59 33.6358 108.905 34.0468C108.226 34.4579 107.44 34.6634 106.546 34.6634C105.182 34.6634 104.089 34.2107 103.267 33.3051C102.451 32.3937 102.042 31.1813 102.042 29.6682V29.5609ZM104.214 29.7486C104.214 30.7435 104.419 31.5239 104.83 32.0898C105.242 32.6498 105.813 32.9298 106.546 32.9298C107.279 32.9298 107.848 32.6439 108.253 32.072C108.664 31.5001 108.87 30.663 108.87 29.5609C108.87 28.5839 108.658 27.8095 108.235 27.2376C107.818 26.6657 107.249 26.3797 106.528 26.3797C105.819 26.3797 105.256 26.6627 104.839 27.2286C104.422 27.7886 104.214 28.6286 104.214 29.7486ZM117.931 26.7997C117.645 26.752 117.35 26.7282 117.046 26.7282C116.051 26.7282 115.381 27.1095 115.035 27.872V34.4847H112.864V24.8159H114.937L114.991 25.8972C115.515 25.0572 116.242 24.6372 117.171 24.6372C117.481 24.6372 117.737 24.6789 117.94 24.7623L117.931 26.7997ZM123.382 34.6634C122.006 34.6634 120.889 34.2315 120.031 33.3677C119.179 32.4979 118.753 31.3422 118.753 29.9005V29.6324C118.753 28.6673 118.938 27.8065 119.307 27.0499C119.682 26.2874 120.206 25.6946 120.88 25.2716C121.553 24.8487 122.303 24.6372 123.132 24.6372C124.448 24.6372 125.464 25.0572 126.179 25.8972C126.9 26.7371 127.26 27.9256 127.26 29.4626V30.3384H120.942C121.008 31.1367 121.273 31.7681 121.737 32.2328C122.208 32.6975 122.798 32.9298 123.507 32.9298C124.502 32.9298 125.312 32.5277 125.937 31.7235L127.108 32.8405C126.721 33.4183 126.203 33.8681 125.553 34.1898C124.91 34.5055 124.186 34.6634 123.382 34.6634ZM123.123 26.3797C122.527 26.3797 122.044 26.5882 121.675 27.0052C121.312 27.4222 121.079 28.0031 120.978 28.7478H125.115V28.5869C125.068 27.8601 124.874 27.312 124.534 26.9427C124.195 26.5674 123.724 26.3797 123.123 26.3797Z" fill="white"/>
<path d="M49.4044 13.0391H46.7362L46.178 14.6429H44.9338L47.5357 7.75474H48.6096L51.2163 14.6429H49.9674L49.4044 13.0391ZM47.0721 12.074H49.0685L48.0703 9.21657L47.0721 12.074ZM53.4587 13.1858L54.5421 9.52408H55.7295L53.9555 14.6429H52.9573L51.169 9.52408H52.3612L53.4587 13.1858ZM59.4338 14.6429C59.3833 14.5451 59.3392 14.3858 59.3013 14.165C58.9355 14.5467 58.4876 14.7375 57.9578 14.7375C57.4437 14.7375 57.0242 14.5908 56.6994 14.2975C56.3745 14.0042 56.2121 13.6415 56.2121 13.2094C56.2121 12.6638 56.4139 12.2459 56.8176 11.9557C57.2245 11.6624 57.8048 11.5158 58.5586 11.5158H59.2635V11.1799C59.2635 10.9149 59.1894 10.7036 59.0411 10.5459C58.8929 10.3851 58.6674 10.3047 58.3646 10.3047C58.1029 10.3047 57.8884 10.3709 57.7212 10.5034C57.5541 10.6327 57.4705 10.7983 57.4705 11.0001H56.3209C56.3209 10.7194 56.4139 10.4576 56.6 10.2148C56.7861 9.96878 57.0384 9.77639 57.357 9.63762C57.6787 9.49885 58.0366 9.42946 58.4309 9.42946C59.0301 9.42946 59.5079 9.58085 59.8643 9.88362C60.2207 10.1832 60.4036 10.6059 60.4131 11.1515V13.4601C60.4131 13.9206 60.4777 14.288 60.6071 14.5624V14.6429H59.4338ZM58.1707 13.815C58.3977 13.815 58.6106 13.7598 58.8093 13.6494C59.0112 13.539 59.1626 13.3908 59.2635 13.2047V12.2396H58.6438C58.218 12.2396 57.8979 12.3137 57.6834 12.4619C57.4689 12.6102 57.3617 12.8199 57.3617 13.0911C57.3617 13.3119 57.4342 13.4885 57.5793 13.621C57.7275 13.7503 57.9247 13.815 58.1707 13.815ZM62.84 14.6429H61.6904V9.52408H62.84V14.6429ZM61.6195 8.19471C61.6195 8.01809 61.6746 7.87144 61.785 7.75474C61.8986 7.63805 62.0594 7.5797 62.2676 7.5797C62.4757 7.5797 62.6366 7.63805 62.7501 7.75474C62.8637 7.87144 62.9204 8.01809 62.9204 8.19471C62.9204 8.36818 62.8637 8.51326 62.7501 8.62995C62.6366 8.74349 62.4757 8.80026 62.2676 8.80026C62.0594 8.80026 61.8986 8.74349 61.785 8.62995C61.6746 8.51326 61.6195 8.36818 61.6195 8.19471ZM65.319 14.6429H64.1694V7.37628H65.319V14.6429ZM69.6335 14.6429C69.583 14.5451 69.5389 14.3858 69.501 14.165C69.1352 14.5467 68.6873 14.7375 68.1575 14.7375C67.6434 14.7375 67.2239 14.5908 66.8991 14.2975C66.5742 14.0042 66.4118 13.6415 66.4118 13.2094C66.4118 12.6638 66.6137 12.2459 67.0173 11.9557C67.4242 11.6624 68.0045 11.5158 68.7583 11.5158H69.4632V11.1799C69.4632 10.9149 69.3891 10.7036 69.2408 10.5459C69.0926 10.3851 68.8671 10.3047 68.5643 10.3047C68.3026 10.3047 68.0881 10.3709 67.9209 10.5034C67.7538 10.6327 67.6702 10.7983 67.6702 11.0001H66.5206C66.5206 10.7194 66.6137 10.4576 66.7997 10.2148C66.9858 9.96878 67.2381 9.77639 67.5567 9.63762C67.8784 9.49885 68.2363 9.42946 68.6306 9.42946C69.2298 9.42946 69.7076 9.58085 70.064 9.88362C70.4204 10.1832 70.6033 10.6059 70.6128 11.1515V13.4601C70.6128 13.9206 70.6774 14.288 70.8068 14.5624V14.6429H69.6335ZM68.3704 13.815C68.5975 13.815 68.8103 13.7598 69.009 13.6494C69.2109 13.539 69.3623 13.3908 69.4632 13.2047V12.2396H68.8435C68.4177 12.2396 68.0976 12.3137 67.8831 12.4619C67.6686 12.6102 67.5614 12.8199 67.5614 13.0911C67.5614 13.3119 67.6339 13.4885 67.779 13.621C67.9272 13.7503 68.1244 13.815 68.3704 13.815ZM76.3087 12.1355C76.3087 12.9303 76.1305 13.5626 75.7741 14.0326C75.4209 14.5025 74.9336 14.7375 74.3123 14.7375C73.7131 14.7375 73.2463 14.5214 72.912 14.0893L72.8552 14.6429H71.8144V7.37628H72.964V10.0161C73.2952 9.625 73.7415 9.42946 74.3029 9.42946C74.9273 9.42946 75.4178 9.66127 75.7741 10.1249C76.1305 10.5885 76.3087 11.2366 76.3087 12.0693V12.1355ZM75.1591 12.0362C75.1591 11.4811 75.0614 11.0648 74.8658 10.7872C74.6703 10.5097 74.3864 10.3709 74.0143 10.3709C73.516 10.3709 73.1659 10.5885 72.964 11.0238V13.1337C73.169 13.5784 73.5223 13.8008 74.0237 13.8008C74.3833 13.8008 74.6608 13.6667 74.8564 13.3986C75.0519 13.1306 75.1528 12.7253 75.1591 12.1828V12.0362ZM78.4991 14.6429H77.3495V7.37628H78.4991V14.6429ZM82.0094 14.7375C81.2809 14.7375 80.6895 14.5088 80.2353 14.0515C79.7843 13.591 79.5588 12.9792 79.5588 12.2159V12.074C79.5588 11.5631 79.6566 11.1073 79.8521 10.7068C80.0508 10.3031 80.3284 9.98928 80.6848 9.76535C81.0412 9.54143 81.4386 9.42946 81.8769 9.42946C82.574 9.42946 83.1117 9.65181 83.4902 10.0965C83.8718 10.5412 84.0626 11.1704 84.0626 11.9841V12.4477H80.7179C80.7526 12.8704 80.8929 13.2047 81.1389 13.4507C81.3881 13.6967 81.7003 13.8197 82.0756 13.8197C82.6023 13.8197 83.0313 13.6068 83.3624 13.181L83.9822 13.7724C83.7772 14.0783 83.5028 14.3164 83.159 14.4867C82.8184 14.6539 82.4352 14.7375 82.0094 14.7375ZM81.8722 10.352C81.5568 10.352 81.3014 10.4624 81.1058 10.6831C80.9134 10.9039 80.7904 11.2114 80.7368 11.6057H82.9272V11.5205C82.902 11.1357 82.7995 10.8456 82.6197 10.65C82.4399 10.4513 82.1908 10.352 81.8722 10.352ZM87.1566 12.0362C87.1566 11.5347 87.2559 11.0837 87.4546 10.6831C87.6533 10.2794 87.9324 9.97036 88.292 9.75589C88.6515 9.53827 89.0647 9.42946 89.5315 9.42946C90.2222 9.42946 90.782 9.65181 91.2109 10.0965C91.643 10.5412 91.8764 11.131 91.9111 11.8658L91.9158 12.1355C91.9158 12.6401 91.818 13.0911 91.6225 13.4885C91.4301 13.8859 91.1526 14.1934 90.7899 14.411C90.4303 14.6287 90.014 14.7375 89.5409 14.7375C88.8187 14.7375 88.2399 14.4978 87.8047 14.0184C87.3726 13.5358 87.1566 12.894 87.1566 12.0929V12.0362ZM88.3062 12.1355C88.3062 12.6622 88.415 13.0754 88.6326 13.375C88.8502 13.6715 89.153 13.8197 89.5409 13.8197C89.9288 13.8197 90.23 13.6683 90.4445 13.3655C90.6621 13.0628 90.7709 12.6196 90.7709 12.0362C90.7709 11.5189 90.659 11.1089 90.435 10.8061C90.2143 10.5034 89.9131 10.352 89.5315 10.352C89.1561 10.352 88.8581 10.5018 88.6373 10.8014C88.4165 11.0979 88.3062 11.5426 88.3062 12.1355ZM93.9548 9.52408L93.9879 10.1154C94.3664 9.65812 94.8631 9.42946 95.4781 9.42946C96.5441 9.42946 97.0866 10.0397 97.1055 11.2603V14.6429H95.9559V11.3265C95.9559 11.0017 95.885 10.762 95.7431 10.6074C95.6043 10.4497 95.3756 10.3709 95.0571 10.3709C94.5935 10.3709 94.2481 10.5806 94.021 11.0001V14.6429H92.8714V9.52408H93.9548Z" fill="white"/>
<path d="M28.2074 22.3057L32.473 18.058L18.6952 10.3469C17.7821 9.85566 16.9267 9.78671 16.1766 10.324L28.2074 22.3057ZM33.2 27.2788L37.6344 24.7951C38.4999 24.3125 38.9745 23.6287 38.9745 22.8702C38.9745 22.1132 38.4999 21.428 37.6358 20.9453L33.6212 18.7001L29.1017 23.1992L33.2 27.2788ZM15.4351 11.3683C15.3428 11.6513 15.2908 11.9673 15.2908 12.3135V33.4371C15.2908 33.9844 15.412 34.4555 15.6313 34.8304L27.3115 23.1978L15.4351 11.3683ZM28.2074 24.0884L16.592 35.6564C16.8142 35.7412 17.0536 35.7857 17.3061 35.7857C17.7561 35.7857 18.225 35.6536 18.7024 35.3892L32.0532 27.9238L28.2074 24.0884Z" fill="white"/>
</g>
<defs>
<filter id="filter0_d_108_53" x="0.21939" y="0.260201" width="146.408" height="51.6735" filterUnits="userSpaceOnUse" color-interpolation-filters="sRGB">
<feFlood flood-opacity="0" result="BackgroundImageFix"/>
<feColorMatrix in="SourceAlpha" type="matrix" values="0 0 0 0 0 0 0 0 0 0 0 0 0 0 0 0 0 0 127 0" result="hardAlpha"/>
<feOffset dy="3.22959"/>
<feGaussianBlur stdDeviation="2.15306"/>
<feColorMatrix type="matrix" values="0 0 0 0 0 0 0 0 0 0 0 0 0 0 0 0 0 0 0.25 0"/>
<feBlend mode="normal" in2="BackgroundImageFix" result="effect1_dropShadow_108_53"/>
<feBlend mode="normal" in="SourceGraphic" in2="effect1_dropShadow_108_53" result="shape"/>
</filter>
</defs>
</svg>
