<svg width="147" height="52" viewBox="0 0 147 52" fill="none" xmlns="http://www.w3.org/2000/svg">
<g filter="url(#filter0_d_108_81)">
<path d="M138.056 44.3614H8.89958C6.53171 44.3614 4.59436 42.4241 4.59436 40.0562V5.61446C4.59436 3.24658 6.53171 1.30923 8.89958 1.30923H138.056C140.424 1.30923 142.361 3.24658 142.361 5.61446V40.0562C142.361 42.4241 140.424 44.3614 138.056 44.3614Z" fill="#0B77BE"/>
</g>
<path d="M48.4859 29.6204V34.4538H46.2256V21.4457H51.2019C52.6552 21.4457 53.8077 21.8239 54.6594 22.5803C55.5171 23.3367 55.946 24.3374 55.946 25.5822C55.946 26.8568 55.5261 27.8485 54.6862 28.5573C53.8524 29.266 52.682 29.6204 51.1751 29.6204H48.4859ZM48.4859 27.8068H51.2019C52.006 27.8068 52.6195 27.6192 53.0424 27.2439C53.4652 26.8627 53.6767 26.3148 53.6767 25.6C53.6767 24.8972 53.4623 24.3374 53.0334 23.9204C52.6046 23.4975 52.0149 23.2801 51.2645 23.2682H48.4859V27.8068ZM60.0289 34.4538H57.8579V20.7309H60.0289V34.4538ZM68.1768 34.4538C68.0815 34.2692 67.9982 33.9684 67.9267 33.5515C67.2358 34.2722 66.39 34.6325 65.3894 34.6325C64.4185 34.6325 63.6264 34.3555 63.0129 33.8016C62.3994 33.2477 62.0927 32.5627 62.0927 31.7468C62.0927 30.7164 62.4739 29.9272 63.2362 29.3792C64.0046 28.8253 65.1005 28.5483 66.524 28.5483H67.8552V27.914C67.8552 27.4137 67.7152 27.0146 67.4353 26.7168C67.1554 26.4131 66.7295 26.2612 66.1577 26.2612C65.6634 26.2612 65.2583 26.3863 64.9427 26.6364C64.627 26.8806 64.4692 27.1933 64.4692 27.5745H62.2982C62.2982 27.0444 62.4739 26.55 62.8253 26.0914C63.1767 25.6269 63.6532 25.2635 64.2547 25.0015C64.8623 24.7394 65.5383 24.6084 66.2828 24.6084C67.4145 24.6084 68.3168 24.8942 68.9899 25.466C69.6629 26.0319 70.0084 26.83 70.0262 27.8604V32.2203C70.0262 33.0899 70.1483 33.7838 70.3925 34.3019V34.4538H68.1768ZM65.7914 32.8903C66.2203 32.8903 66.6223 32.7861 66.9975 32.5776C67.3787 32.3692 67.6646 32.0892 67.8552 31.7378V29.9153H66.6848C65.8808 29.9153 65.2762 30.0552 64.8712 30.3352C64.4662 30.6151 64.2637 31.0112 64.2637 31.5234C64.2637 31.9403 64.4007 32.2739 64.6746 32.524C64.9546 32.7682 65.3268 32.8903 65.7914 32.8903ZM75.5386 31.3447L77.5041 24.787H79.8181L75.9764 35.919C75.3867 37.545 74.3861 38.358 72.9745 38.358C72.6588 38.358 72.3104 38.3044 71.9292 38.1972V36.5176L72.3402 36.5444C72.8881 36.5444 73.2991 36.4432 73.5731 36.2407C73.853 36.0441 74.0734 35.7106 74.2342 35.24L74.5469 34.4091L71.1519 24.787H73.4927L75.5386 31.3447ZM92.6386 31.1035C92.6386 30.5317 92.4361 30.091 92.0311 29.7812C91.632 29.4715 90.9084 29.1588 89.8601 28.8432C88.8118 28.5275 87.978 28.1761 87.3585 27.7889C86.1733 27.0444 85.5806 26.0736 85.5806 24.8764C85.5806 23.8281 86.0065 22.9645 86.8582 22.2855C87.7159 21.6065 88.8267 21.267 90.1907 21.267C91.096 21.267 91.903 21.4337 92.6118 21.7673C93.3206 22.1008 93.8775 22.5773 94.2825 23.1968C94.6875 23.8102 94.89 24.4922 94.89 25.2427H92.6386C92.6386 24.5637 92.4242 24.0336 91.9954 23.6524C91.5725 23.2653 90.9649 23.0717 90.1728 23.0717C89.4342 23.0717 88.8595 23.2295 88.4485 23.5452C88.0435 23.8609 87.841 24.3016 87.841 24.8674C87.841 25.3439 88.0613 25.743 88.5021 26.0646C88.9428 26.3803 89.6695 26.69 90.682 26.9938C91.6946 27.2916 92.5076 27.6341 93.1211 28.0212C93.7345 28.4024 94.1842 28.8432 94.4701 29.3435C94.756 29.8378 94.899 30.4185 94.899 31.0856C94.899 32.1696 94.482 33.0333 93.6482 33.6765C92.8203 34.3138 91.6946 34.6325 90.2711 34.6325C89.33 34.6325 88.4634 34.4598 87.6712 34.1143C86.885 33.7629 86.2715 33.2805 85.8308 32.667C85.396 32.0535 85.1786 31.3388 85.1786 30.5228H87.4389C87.4389 31.2613 87.6831 31.8331 88.1715 32.2381C88.6599 32.6432 89.3598 32.8457 90.2711 32.8457C91.0573 32.8457 91.6469 32.6878 92.04 32.3722C92.4391 32.0505 92.6386 31.6276 92.6386 31.1035ZM99.3929 22.4374V24.787H101.099V26.3952H99.3929V31.7914C99.3929 32.1607 99.4643 32.4287 99.6073 32.5955C99.7562 32.7563 100.018 32.8367 100.393 32.8367C100.644 32.8367 100.897 32.8069 101.153 32.7474V34.427C100.659 34.564 100.182 34.6325 99.7234 34.6325C98.0557 34.6325 97.2218 33.7123 97.2218 31.8718V26.3952H95.6316V24.787H97.2218V22.4374H99.3929ZM102.091 29.5311C102.091 28.5841 102.279 27.7323 102.654 26.9759C103.029 26.2135 103.556 25.6298 104.235 25.2248C104.914 24.8138 105.694 24.6084 106.576 24.6084C107.88 24.6084 108.938 25.0283 109.748 25.8681C110.564 26.7079 111.004 27.8217 111.07 29.2095L111.079 29.7187C111.079 30.6717 110.894 31.5234 110.525 32.2739C110.162 33.0243 109.637 33.6051 108.952 34.016C108.273 34.427 107.487 34.6325 106.594 34.6325C105.23 34.6325 104.137 34.1798 103.315 33.2745C102.499 32.3632 102.091 31.1511 102.091 29.6383V29.5311ZM104.262 29.7187C104.262 30.7134 104.467 31.4936 104.878 32.0595C105.289 32.6193 105.861 32.8993 106.594 32.8993C107.326 32.8993 107.895 32.6134 108.3 32.0416C108.711 31.4698 108.917 30.633 108.917 29.5311C108.917 28.5543 108.705 27.78 108.282 27.2082C107.865 26.6364 107.297 26.3505 106.576 26.3505C105.867 26.3505 105.304 26.6334 104.887 27.1993C104.47 27.7591 104.262 28.599 104.262 29.7187ZM117.976 26.7704C117.69 26.7228 117.395 26.699 117.091 26.699C116.097 26.699 115.427 27.0801 115.081 27.8425V34.4538H112.91V24.787H114.983L115.037 25.8681C115.561 25.0283 116.287 24.6084 117.217 24.6084C117.526 24.6084 117.782 24.65 117.985 24.7334L117.976 26.7704ZM123.426 34.6325C122.05 34.6325 120.933 34.2007 120.075 33.337C119.224 32.4675 118.798 31.312 118.798 29.8706V29.6026C118.798 28.6377 118.983 27.777 119.352 27.0206C119.727 26.2582 120.251 25.6656 120.924 25.2427C121.597 24.8198 122.348 24.6084 123.176 24.6084C124.492 24.6084 125.507 25.0283 126.222 25.8681C126.943 26.7079 127.303 27.8961 127.303 29.4328V30.3084H120.987C121.052 31.1065 121.317 31.7378 121.782 32.2024C122.252 32.667 122.842 32.8993 123.551 32.8993C124.546 32.8993 125.356 32.4972 125.981 31.6932L127.151 32.8099C126.764 33.3877 126.246 33.8374 125.597 34.159C124.954 34.4747 124.23 34.6325 123.426 34.6325ZM123.167 26.3505C122.571 26.3505 122.089 26.559 121.719 26.9759C121.356 27.3928 121.124 27.9736 121.022 28.7181H125.159V28.5573C125.111 27.8306 124.918 27.2827 124.578 26.9134C124.239 26.5381 123.768 26.3505 123.167 26.3505Z" fill="white"/>
<path d="M49.464 13.011H46.7963L46.2382 14.6145H44.9942L47.5957 7.72778H48.6693L51.2755 14.6145H50.0268L49.464 13.011ZM47.1321 12.0461H49.1281L48.1301 9.18931L47.1321 12.0461ZM53.5174 13.1577L54.6006 9.49675H55.7878L54.0141 14.6145H53.0161L51.2282 9.49675H52.4201L53.5174 13.1577ZM59.4913 14.6145C59.4408 14.5167 59.3967 14.3575 59.3588 14.1367C58.993 14.5183 58.5453 14.7091 58.0155 14.7091C57.5016 14.7091 57.0822 14.5624 56.7574 14.2692C56.4326 13.9759 56.2702 13.6133 56.2702 13.1813C56.2702 12.6358 56.472 12.218 56.8756 11.9279C57.2824 11.6346 57.8626 11.488 58.6162 11.488H59.321V11.1522C59.321 10.8873 59.2469 10.6761 59.0987 10.5184C58.9505 10.3576 58.725 10.2772 58.4223 10.2772C58.1606 10.2772 57.9462 10.3434 57.779 10.4758C57.6119 10.6051 57.5284 10.7707 57.5284 10.9725H56.379C56.379 10.6918 56.472 10.4301 56.6581 10.1873C56.8441 9.94136 57.0964 9.74901 57.4148 9.61027C57.7365 9.47152 58.0944 9.40215 58.4885 9.40215C59.0876 9.40215 59.5654 9.55351 59.9217 9.85622C60.278 10.1558 60.4609 10.5783 60.4703 11.1238V13.432C60.4703 13.8924 60.535 14.2597 60.6643 14.534V14.6145H59.4913ZM58.2284 13.7867C58.4554 13.7867 58.6683 13.7315 58.8669 13.6212C59.0687 13.5108 59.2201 13.3626 59.321 13.1766V12.2117H58.7014C58.2757 12.2117 57.9556 12.2858 57.7412 12.434C57.5268 12.5822 57.4196 12.7919 57.4196 13.0631C57.4196 13.2838 57.4921 13.4604 57.6371 13.5928C57.7854 13.7221 57.9824 13.7867 58.2284 13.7867ZM62.8967 14.6145H61.7474V9.49675H62.8967V14.6145ZM61.6764 8.16766C61.6764 7.99108 61.7316 7.84445 61.842 7.72778C61.9555 7.61111 62.1163 7.55278 62.3244 7.55278C62.5326 7.55278 62.6934 7.61111 62.8069 7.72778C62.9204 7.84445 62.9772 7.99108 62.9772 8.16766C62.9772 8.34109 62.9204 8.48614 62.8069 8.60281C62.6934 8.71632 62.5326 8.77308 62.3244 8.77308C62.1163 8.77308 61.9555 8.71632 61.842 8.60281C61.7316 8.48614 61.6764 8.34109 61.6764 8.16766ZM65.3752 14.6145H64.2258V7.3494H65.3752V14.6145ZM69.6888 14.6145C69.6384 14.5167 69.5942 14.3575 69.5564 14.1367C69.1906 14.5183 68.7429 14.7091 68.2131 14.7091C67.6991 14.7091 67.2798 14.5624 66.955 14.2692C66.6302 13.9759 66.4678 13.6133 66.4678 13.1813C66.4678 12.6358 66.6696 12.218 67.0732 11.9279C67.48 11.6346 68.0602 11.488 68.8138 11.488H69.5186V11.1522C69.5186 10.8873 69.4445 10.6761 69.2962 10.5184C69.148 10.3576 68.9226 10.2772 68.6199 10.2772C68.3582 10.2772 68.1437 10.3434 67.9766 10.4758C67.8095 10.6051 67.7259 10.7707 67.7259 10.9725H66.5766C66.5766 10.6918 66.6696 10.4301 66.8556 10.1873C67.0417 9.94136 67.2939 9.74901 67.6124 9.61027C67.934 9.47152 68.2919 9.40215 68.6861 9.40215C69.2852 9.40215 69.7629 9.55351 70.1192 9.85622C70.4756 10.1558 70.6584 10.5783 70.6679 11.1238V13.432C70.6679 13.8924 70.7325 14.2597 70.8618 14.534V14.6145H69.6888ZM68.426 13.7867C68.653 13.7867 68.8658 13.7315 69.0645 13.6212C69.2663 13.5108 69.4176 13.3626 69.5186 13.1766V12.2117H68.8989C68.4733 12.2117 68.1532 12.2858 67.9388 12.434C67.7244 12.5822 67.6171 12.7919 67.6171 13.0631C67.6171 13.2838 67.6897 13.4604 67.8347 13.5928C67.9829 13.7221 68.18 13.7867 68.426 13.7867ZM76.3627 12.1076C76.3627 12.9022 76.1845 13.5345 75.8282 14.0043C75.475 14.4741 74.9878 14.7091 74.3667 14.7091C73.7675 14.7091 73.3009 14.4931 72.9666 14.0611L72.9099 14.6145H71.8693V7.3494H73.0186V9.98866C73.3497 9.59765 73.7959 9.40215 74.3572 9.40215C74.9815 9.40215 75.4719 9.63392 75.8282 10.0974C76.1845 10.561 76.3627 11.209 76.3627 12.0414V12.1076ZM75.2133 12.0083C75.2133 11.4533 75.1155 11.0371 74.92 10.7596C74.7245 10.4821 74.4408 10.3434 74.0687 10.3434C73.5705 10.3434 73.2205 10.561 73.0186 10.9961V13.1056C73.2236 13.5502 73.5768 13.7725 74.0781 13.7725C74.4376 13.7725 74.7151 13.6385 74.9106 13.3705C75.1061 13.1025 75.207 12.6973 75.2133 12.1549V12.0083ZM78.5526 14.6145H77.4032V7.3494H78.5526V14.6145ZM82.0621 14.7091C81.3337 14.7091 80.7425 14.4804 80.2884 14.0232C79.8375 13.5629 79.6121 12.9511 79.6121 12.188V12.0461C79.6121 11.5353 79.7098 11.0797 79.9053 10.6792C80.104 10.2756 80.3815 9.96185 80.7378 9.73797C81.0941 9.51409 81.4914 9.40215 81.9297 9.40215C82.6266 9.40215 83.1642 9.62446 83.5426 10.0691C83.9241 10.5137 84.1149 11.1427 84.1149 11.9563V12.4198H80.7709C80.8056 12.8423 80.9459 13.1766 81.1918 13.4225C81.4409 13.6685 81.7531 13.7915 82.1283 13.7915C82.6549 13.7915 83.0838 13.5786 83.4149 13.1529L84.0345 13.7442C83.8295 14.05 83.5552 14.2881 83.2115 14.4584C82.8709 14.6255 82.4878 14.7091 82.0621 14.7091ZM81.925 10.3245C81.6096 10.3245 81.3542 10.4348 81.1587 10.6556C80.9664 10.8763 80.8434 11.1837 80.7898 11.5779H82.9797V11.4928C82.9545 11.1081 82.852 10.818 82.6723 10.6225C82.4925 10.4238 82.2434 10.3245 81.925 10.3245ZM87.2082 12.0083C87.2082 11.5069 87.3075 11.056 87.5062 10.6556C87.7049 10.252 87.9839 9.94293 88.3434 9.72851C88.7029 9.51094 89.1159 9.40215 89.5826 9.40215C90.2732 9.40215 90.8329 9.62446 91.2617 10.0691C91.6937 10.5137 91.927 11.1033 91.9617 11.838L91.9665 12.1076C91.9665 12.6121 91.8687 13.0631 91.6732 13.4604C91.4809 13.8577 91.2034 14.1651 90.8407 14.3827C90.4813 14.6003 90.065 14.7091 89.5921 14.7091C88.87 14.7091 88.2914 14.4694 87.8562 13.9901C87.4242 13.5077 87.2082 12.866 87.2082 12.0651V12.0083ZM88.3576 12.1076C88.3576 12.6342 88.4664 13.0473 88.6839 13.3469C88.9015 13.6433 89.2042 13.7915 89.5921 13.7915C89.9799 13.7915 90.281 13.6401 90.4955 13.3374C90.713 13.0347 90.8218 12.5917 90.8218 12.0083C90.8218 11.4912 90.7099 11.0813 90.486 10.7785C90.2653 10.4758 89.9641 10.3245 89.5826 10.3245C89.2074 10.3245 88.9094 10.4743 88.6887 10.7738C88.4679 11.0702 88.3576 11.5148 88.3576 12.1076ZM94.005 9.49675L94.0381 10.088C94.4165 9.63076 94.9132 9.40215 95.528 9.40215C96.5938 9.40215 97.1362 10.0123 97.1551 11.2326V14.6145H96.0058V11.2988C96.0058 10.974 95.9348 10.7344 95.7929 10.5799C95.6542 10.4222 95.4256 10.3434 95.1071 10.3434C94.6436 10.3434 94.2983 10.5531 94.0712 10.9725V14.6145H92.9219V9.49675H94.005Z" fill="white"/>
<path d="M28.2712 22.2738L32.536 18.027L18.7611 10.3176C17.8482 9.82638 16.9929 9.75744 16.243 10.2946L28.2712 22.2738ZM33.2628 27.2459L37.6963 24.7627C38.5616 24.2802 39.0361 23.5965 39.0361 22.8382C39.0361 22.0814 38.5616 21.3963 37.6977 20.9137L33.684 18.669L29.1654 23.1671L33.2628 27.2459ZM15.5016 11.3387C15.4093 11.6216 15.3574 11.9376 15.3574 12.2837V33.4028C15.3574 33.95 15.4786 34.4211 15.6978 34.7959L27.3756 23.1657L15.5016 11.3387ZM28.2712 24.0561L16.6583 35.6217C16.8804 35.7065 17.1198 35.751 17.3722 35.751C17.8222 35.751 18.2909 35.6189 18.7683 35.3546L32.1163 27.8907L28.2712 24.0561Z" fill="white"/>
<defs>
<filter id="filter0_d_108_81" x="0.289139" y="0.232929" width="146.378" height="51.6627" filterUnits="userSpaceOnUse" color-interpolation-filters="sRGB">
<feFlood flood-opacity="0" result="BackgroundImageFix"/>
<feColorMatrix in="SourceAlpha" type="matrix" values="0 0 0 0 0 0 0 0 0 0 0 0 0 0 0 0 0 0 127 0" result="hardAlpha"/>
<feOffset dy="3.22892"/>
<feGaussianBlur stdDeviation="2.15261"/>
<feColorMatrix type="matrix" values="0 0 0 0 0 0 0 0 0 0 0 0 0 0 0 0 0 0 0.25 0"/>
<feBlend mode="normal" in2="BackgroundImageFix" result="effect1_dropShadow_108_81"/>
<feBlend mode="normal" in="SourceGraphic" in2="effect1_dropShadow_108_81" result="shape"/>
</filter>
</defs>
</svg>
