<svg width="175" height="52" viewBox="0 0 175 52" fill="none" xmlns="http://www.w3.org/2000/svg">
<g filter="url(#filter0_d_105_1)">
<rect x="4.60242" y="1.34537" width="165.751" height="43.0522" rx="18.2972" fill="#0B77BE"/>
<path d="M30.4337 32.8811L20.7469 31.4819V23.302H30.4337V32.8811ZM30.4337 22.5486H20.7469V14.7992L30.4337 13.4V22.5486ZM43.6722 34.7108L31.1871 32.8811V23.302H43.6722V34.7108ZM43.6722 22.5486H31.1871V13.4L43.6722 11.5703V22.5486Z" fill="white"/>
<path d="M61.3481 15.7269V8.07505H63.6079C64.2841 8.07505 64.8832 8.2257 65.4053 8.52701C65.9308 8.82832 66.3372 9.25576 66.6245 9.80933C66.9118 10.3629 67.0555 10.9971 67.0555 11.7118V12.0954C67.0555 12.8207 66.9101 13.4583 66.6193 14.0084C66.332 14.5585 65.9203 14.9824 65.3843 15.2802C64.8517 15.578 64.2403 15.7269 63.5501 15.7269H61.3481ZM62.6777 9.14715V14.6653H63.5449C64.2421 14.6653 64.7764 14.4481 65.1478 14.0136C65.5226 13.5757 65.7136 12.9486 65.7206 12.1322V11.7065C65.7206 10.8762 65.5402 10.242 65.1793 9.80408C64.8184 9.36613 64.2946 9.14715 63.6079 9.14715H62.6777ZM68.0172 12.8312C68.0172 12.2741 68.1276 11.7731 68.3483 11.3281C68.569 10.8797 68.8791 10.5363 69.2785 10.2981C69.6779 10.0563 70.1369 9.93546 70.6554 9.93546C71.4227 9.93546 72.0446 10.1825 72.5211 10.6765C73.0011 11.1705 73.2603 11.8257 73.2989 12.642L73.3041 12.9415C73.3041 13.5021 73.1955 14.0031 72.9783 14.4446C72.7646 14.886 72.4563 15.2276 72.0534 15.4694C71.6539 15.7111 71.1915 15.832 70.6659 15.832C69.8636 15.832 69.2207 15.5657 68.7372 15.0332C68.2572 14.4971 68.0172 13.7842 68.0172 12.8942V12.8312ZM69.2943 12.9415C69.2943 13.5266 69.4151 13.9856 69.6569 14.3185C69.8986 14.6478 70.235 14.8125 70.6659 14.8125C71.0969 14.8125 71.4315 14.6443 71.6697 14.308C71.9115 13.9716 72.0323 13.4793 72.0323 12.8312C72.0323 12.2566 71.908 11.8011 71.6592 11.4648C71.4139 11.1284 71.0794 10.9603 70.6554 10.9603C70.2385 10.9603 69.9074 11.1267 69.6621 11.4595C69.4169 11.7889 69.2943 12.2829 69.2943 12.9415ZM79.3794 13.9663L80.2833 10.0406H81.5288L79.9785 15.7269H78.9274L77.7082 11.8221L76.5099 15.7269H75.4589L73.9033 10.0406H75.1488L76.0685 13.9243L77.2352 10.0406H78.1969L79.3794 13.9663ZM83.5679 10.0406L83.6047 10.6975C84.0251 10.1895 84.577 9.93546 85.2602 9.93546C86.4444 9.93546 87.047 10.6134 87.068 11.9693V15.7269H85.791V12.0429C85.791 11.682 85.7121 11.4157 85.5545 11.2441C85.4003 11.0689 85.1463 10.9813 84.7924 10.9813C84.2774 10.9813 83.8938 11.2143 83.6415 11.6803V15.7269H82.3644V10.0406H83.5679ZM89.7325 15.7269H88.4554V7.65462H89.7325V15.7269ZM90.8887 12.8312C90.8887 12.2741 90.9991 11.7731 91.2198 11.3281C91.4405 10.8797 91.7506 10.5363 92.15 10.2981C92.5494 10.0563 93.0084 9.93546 93.5269 9.93546C94.2942 9.93546 94.9161 10.1825 95.3926 10.6765C95.8726 11.1705 96.1318 11.8257 96.1704 12.642L96.1756 12.9415C96.1756 13.5021 96.067 14.0031 95.8498 14.4446C95.6361 14.886 95.3278 15.2276 94.9248 15.4694C94.5254 15.7111 94.063 15.832 93.5374 15.832C92.7351 15.832 92.0922 15.5657 91.6087 15.0332C91.1287 14.4971 90.8887 13.7842 90.8887 12.8942V12.8312ZM92.1658 12.9415C92.1658 13.5266 92.2866 13.9856 92.5284 14.3185C92.7701 14.6478 93.1065 14.8125 93.5374 14.8125C93.9684 14.8125 94.303 14.6443 94.5412 14.308C94.7829 13.9716 94.9038 13.4793 94.9038 12.8312C94.9038 12.2566 94.7794 11.8011 94.5307 11.4648C94.2854 11.1284 93.9508 10.9603 93.5269 10.9603C93.11 10.9603 92.7789 11.1267 92.5336 11.4595C92.2884 11.7889 92.1658 12.2829 92.1658 12.9415ZM100.653 15.7269C100.597 15.6183 100.548 15.4414 100.506 15.1961C100.1 15.62 99.6021 15.832 99.0135 15.832C98.4425 15.832 97.9765 15.6691 97.6156 15.3433C97.2547 15.0174 97.0743 14.6145 97.0743 14.1345C97.0743 13.5284 97.2985 13.0642 97.747 12.7418C98.199 12.416 98.8436 12.2531 99.681 12.2531H100.464V11.88C100.464 11.5857 100.382 11.3509 100.217 11.1757C100.052 10.9971 99.8019 10.9077 99.4655 10.9077C99.1747 10.9077 98.9365 10.9813 98.7508 11.1284C98.5651 11.2721 98.4722 11.456 98.4722 11.6803H97.1952C97.1952 11.3684 97.2985 11.0776 97.5052 10.8079C97.712 10.5346 97.9922 10.3209 98.3461 10.1667C98.7035 10.0125 99.1011 9.93546 99.5391 9.93546C100.205 9.93546 100.736 10.1036 101.131 10.44C101.527 10.7728 101.731 11.2423 101.741 11.8484V14.4131C101.741 14.9246 101.813 15.3328 101.957 15.6376V15.7269H100.653ZM99.25 14.8072C99.5023 14.8072 99.7388 14.7459 99.9595 14.6233C100.184 14.5006 100.352 14.336 100.464 14.1293V13.0572H99.7756C99.3026 13.0572 98.947 13.1395 98.7087 13.3042C98.4705 13.4688 98.3514 13.7018 98.3514 14.0031C98.3514 14.2484 98.4319 14.4446 98.5931 14.5917C98.7578 14.7354 98.9768 14.8072 99.25 14.8072ZM102.839 12.8417C102.839 11.9658 103.043 11.2633 103.449 10.7343C103.856 10.2017 104.4 9.93546 105.084 9.93546C105.686 9.93546 106.173 10.1457 106.545 10.5661V7.65462H107.822V15.7269H106.665L106.602 15.1383C106.22 15.6008 105.711 15.832 105.073 15.832C104.407 15.832 103.868 15.564 103.454 15.0279C103.044 14.4919 102.839 13.7631 102.839 12.8417ZM104.117 12.9521C104.117 13.5302 104.227 13.9821 104.448 14.308C104.672 14.6303 104.989 14.7914 105.399 14.7914C105.921 14.7914 106.303 14.5585 106.545 14.0925V11.6645C106.31 11.209 105.931 10.9813 105.409 10.9813C104.996 10.9813 104.677 11.146 104.453 11.4753C104.229 11.8011 104.117 12.2934 104.117 12.9521ZM112.283 15.7269V10.9865H111.416V10.0406H112.283V9.52028C112.283 8.88964 112.459 8.40264 112.809 8.05928C113.159 7.71593 113.65 7.54425 114.28 7.54425C114.505 7.54425 114.743 7.57579 114.995 7.63885L114.964 8.63738C114.824 8.60935 114.661 8.59533 114.475 8.59533C113.865 8.59533 113.56 8.90891 113.56 9.53605V10.0406H114.717V10.9865H113.56V15.7269H112.283ZM115.41 12.8312C115.41 12.2741 115.521 11.7731 115.741 11.3281C115.962 10.8797 116.272 10.5363 116.672 10.2981C117.071 10.0563 117.53 9.93546 118.049 9.93546C118.816 9.93546 119.438 10.1825 119.914 10.6765C120.394 11.1705 120.654 11.8257 120.692 12.642L120.697 12.9415C120.697 13.5021 120.589 14.0031 120.371 14.4446C120.158 14.886 119.849 15.2276 119.447 15.4694C119.047 15.7111 118.585 15.832 118.059 15.832C117.257 15.832 116.614 15.5657 116.13 15.0332C115.65 14.4971 115.41 13.7842 115.41 12.8942V12.8312ZM116.687 12.9415C116.687 13.5266 116.808 13.9856 117.05 14.3185C117.292 14.6478 117.628 14.8125 118.059 14.8125C118.49 14.8125 118.825 14.6443 119.063 14.308C119.305 13.9716 119.426 13.4793 119.426 12.8312C119.426 12.2566 119.301 11.8011 119.052 11.4648C118.807 11.1284 118.473 10.9603 118.049 10.9603C117.632 10.9603 117.301 11.1267 117.055 11.4595C116.81 11.7889 116.687 12.2829 116.687 12.9415ZM124.754 11.2073C124.586 11.1792 124.413 11.1652 124.234 11.1652C123.649 11.1652 123.255 11.3895 123.052 11.8379V15.7269H121.775V10.0406H122.994L123.025 10.6765C123.334 10.1825 123.761 9.93546 124.308 9.93546C124.49 9.93546 124.641 9.95999 124.76 10.009L124.754 11.2073ZM61.9704 35.7269V21.9536H66.038C67.2552 21.9536 68.3336 22.2247 69.2732 22.7671C70.2192 23.3095 70.9508 24.0788 71.4679 25.0753C71.985 26.0717 72.2436 27.2132 72.2436 28.4997V29.1902C72.2436 30.4957 71.9819 31.6435 71.4584 32.6336C70.9413 33.6237 70.2003 34.3868 69.2354 34.9228C68.2768 35.4589 67.1763 35.7269 65.934 35.7269H61.9704ZM64.3637 23.8833V33.816H65.9245C67.1795 33.816 68.1412 33.425 68.8097 32.643C69.4845 31.8547 69.8282 30.7259 69.8408 29.2565V28.4902C69.8408 26.9956 69.516 25.8541 68.8665 25.0658C68.2169 24.2775 67.2741 23.8833 66.038 23.8833H64.3637ZM78.9127 35.9161C77.4559 35.9161 76.2734 35.4589 75.3653 34.5444C74.4635 33.6237 74.0126 32.4002 74.0126 30.8741V30.5903C74.0126 29.5686 74.2081 28.6573 74.5991 27.8564C74.9964 27.0492 75.5513 26.4217 76.264 25.9739C76.9766 25.5262 77.7712 25.3023 78.6478 25.3023C80.0416 25.3023 81.1168 25.7469 81.8736 26.6361C82.6367 27.5253 83.0182 28.7835 83.0182 30.4105V31.3376H76.3302C76.3996 32.1827 76.6802 32.8512 77.1721 33.3431C77.6703 33.835 78.2947 34.0809 79.0451 34.0809C80.0983 34.0809 80.956 33.6552 81.6182 32.8039L82.8574 33.9863C82.4475 34.598 81.8988 35.0742 81.2114 35.4147C80.5303 35.749 79.7641 35.9161 78.9127 35.9161ZM78.6384 27.1469C78.0077 27.1469 77.4969 27.3677 77.1059 27.8091C76.7212 28.2506 76.4752 28.8655 76.368 29.6538H80.7479V29.4835C80.6974 28.7141 80.4925 28.1339 80.133 27.7429C79.7735 27.3456 79.2753 27.1469 78.6384 27.1469ZM90.5481 32.9458C90.5481 32.5358 90.3779 32.2237 90.0373 32.0092C89.7031 31.7948 89.145 31.6056 88.363 31.4417C87.5809 31.2777 86.9282 31.0696 86.4048 30.8173C85.257 30.2623 84.6831 29.4583 84.6831 28.4051C84.6831 27.5222 85.0552 26.7843 85.7994 26.1915C86.5435 25.5987 87.4895 25.3023 88.6373 25.3023C89.8607 25.3023 90.8477 25.605 91.5982 26.2104C92.355 26.8159 92.7333 27.601 92.7333 28.5659H90.4346C90.4346 28.1245 90.2707 27.7587 89.9427 27.4686C89.6148 27.1722 89.1796 27.024 88.6373 27.024C88.1328 27.024 87.7197 27.1406 87.3981 27.374C87.0827 27.6073 86.9251 27.9195 86.9251 28.3105C86.9251 28.6637 87.0733 28.938 87.3697 29.1335C87.6661 29.329 88.2652 29.5276 89.167 29.7294C90.0689 29.9249 90.7752 30.1614 91.286 30.4389C91.8031 30.7101 92.1847 31.038 92.4306 31.4227C92.6829 31.8074 92.809 32.2741 92.809 32.8228C92.809 33.7435 92.4275 34.4908 91.6644 35.0647C90.9013 35.6323 89.9017 35.9161 88.6657 35.9161C87.8269 35.9161 87.0796 35.7647 86.4237 35.462C85.7678 35.1593 85.257 34.7431 84.8912 34.2134C84.5255 33.6836 84.3426 33.1129 84.3426 32.5011H86.5751C86.6066 33.0435 86.8116 33.4629 87.1899 33.7593C87.5683 34.0494 88.0697 34.1944 88.694 34.1944C89.2995 34.1944 89.7598 34.0809 90.0752 33.8539C90.3905 33.6205 90.5481 33.3178 90.5481 32.9458ZM98.1443 31.3376L97.1226 32.3876V35.7269H94.8239V21.1968H97.1226V29.5781L97.8416 28.6794L100.67 25.4915H103.432L99.6295 29.7578L103.839 35.7269H101.181L98.1443 31.3376ZM107.822 23.0036V25.4915H109.628V27.1942H107.822V32.9079C107.822 33.2989 107.897 33.5827 108.049 33.7593C108.206 33.9296 108.484 34.0147 108.881 34.0147C109.146 34.0147 109.414 33.9832 109.685 33.9201V35.6985C109.162 35.8436 108.657 35.9161 108.172 35.9161C106.406 35.9161 105.523 34.9418 105.523 32.9931V27.1942H103.839V25.4915H105.523V23.0036H107.822ZM110.678 30.5146C110.678 29.5119 110.877 28.61 111.274 27.8091C111.672 27.0019 112.23 26.3839 112.949 25.955C113.668 25.5199 114.494 25.3023 115.427 25.3023C116.808 25.3023 117.928 25.7469 118.785 26.6361C119.649 27.5253 120.116 28.7046 120.185 30.1741L120.195 30.7133C120.195 31.7223 119.999 32.6241 119.608 33.4187C119.224 34.2134 118.669 34.8282 117.943 35.2634C117.225 35.6985 116.392 35.9161 115.446 35.9161C114.002 35.9161 112.845 35.4368 111.974 34.4782C111.11 33.5133 110.678 32.23 110.678 30.6281V30.5146ZM112.977 30.7133C112.977 31.7664 113.195 32.5926 113.63 33.1917C114.065 33.7845 114.67 34.0809 115.446 34.0809C116.222 34.0809 116.824 33.7782 117.253 33.1728C117.688 32.5674 117.906 31.6813 117.906 30.5146C117.906 29.4803 117.682 28.6605 117.234 28.0551C116.793 27.4497 116.19 27.1469 115.427 27.1469C114.677 27.1469 114.081 27.4465 113.639 28.0456C113.198 28.6384 112.977 29.5276 112.977 30.7133ZM131.102 30.7133C131.102 32.2962 130.742 33.5606 130.024 34.5066C129.305 35.4463 128.34 35.9161 127.129 35.9161C126.006 35.9161 125.108 35.5472 124.433 34.8093V39.6621H122.134V25.4915H124.253L124.348 26.5321C125.022 25.7122 125.94 25.3023 127.1 25.3023C128.349 25.3023 129.327 25.769 130.033 26.7023C130.746 27.6294 131.102 28.9191 131.102 30.5714V30.7133ZM128.813 30.5146C128.813 29.493 128.608 28.6826 128.198 28.0835C127.794 27.4843 127.214 27.1848 126.457 27.1848C125.518 27.1848 124.843 27.5726 124.433 28.3483V32.889C124.849 33.6836 125.53 34.0809 126.476 34.0809C127.208 34.0809 127.778 33.7877 128.188 33.2012C128.605 32.6084 128.813 31.7128 128.813 30.5146Z" fill="white"/>
</g>
<defs>
<filter id="filter0_d_105_1" x="0.297196" y="0.269062" width="174.361" height="51.6627" filterUnits="userSpaceOnUse" color-interpolation-filters="sRGB">
<feFlood flood-opacity="0" result="BackgroundImageFix"/>
<feColorMatrix in="SourceAlpha" type="matrix" values="0 0 0 0 0 0 0 0 0 0 0 0 0 0 0 0 0 0 127 0" result="hardAlpha"/>
<feOffset dy="3.22892"/>
<feGaussianBlur stdDeviation="2.15261"/>
<feColorMatrix type="matrix" values="0 0 0 0 0 0 0 0 0 0 0 0 0 0 0 0 0 0 0.25 0"/>
<feBlend mode="normal" in2="BackgroundImageFix" result="effect1_dropShadow_105_1"/>
<feBlend mode="normal" in="SourceGraphic" in2="effect1_dropShadow_105_1" result="shape"/>
</filter>
</defs>
</svg>
